<ttFont>
<head>
    <!-- Most of this table will be recalculated by the compiler -->
    <tableVersion value="1.0"/>
    <fontRevision value="0.0"/>
    <checkSumAdjustment value="0x94453bcf"/>
    <magicNumber value="0x5f0f3cf5"/>
    <flags value="00000000 00000011"/>
    <unitsPerEm value="2048"/>
    <created value="Thu May  4 15:34:54 2017"/>
    <modified value="Thu May  4 22:34:56 2017"/>
    <xMin value="-167"/>
    <yMin value="-595"/>
    <xMax value="1740"/>
    <yMax value="2358"/>
<macStyle value="00000000 00000010"/>
    <lowestRecPPEM value="3"/>
    <fontDirectionHint value="2"/>
    <indexToLocFormat value="0"/>
    <glyphDataFormat value="0"/>
  </head>
          <CharString index="0">
            692 -26 rmoveto
            290 212 168 282 50 hvcurveto
            -33 callgsubr
            106 callgsubr
            -246 207 -200 303 vhcurveto
            74 898 rmoveto
            100 73 -77 -107 -20 -2 -27 -4 -23 27 callgsubr
            -96 -77 76 107 20 2 28 4 23 hvcurveto
            28 157 -60 callgsubr
            return
          </CharString>
          <CharString index="1">
            795 890 rmoveto
            94 60 -54 -84 -23 -3 -31 -4 -17 hvcurveto
            -355 hlineto
            2 12 3 12 3 11 rrcurveto
            114 31 68 60 101 hhcurveto
            419 -562 rmoveto
            17 callgsubr
            -25 -124 rlineto
            -12 -61 -5 -47 -60 vvcurveto
            -266 185 -168 291 285 203 136 218 42 vhcurveto
            return
          </CharString>
          <CharString index="2">
            48 callsubr
            -115 -652 rlineto
            -133 -23 -80 -65 -98 hhcurveto
            -96 -54 66 80 28 2 44 callsubr
            111 628 103 callgsubr
            -120 -679 rlineto
            -7 -37 -4 -34 -50 vvcurveto
            -200 120 -139 216 156 112 87 120 56 vhcurveto
            19 hlineto
            -32 -181 rlineto
            return
          </CharString>
          <CharString index="3">
            rmoveto
            -4 -25 -1 -22 -30 vvcurveto
            -286 222 -183 320 298 211 177 304 55 vhcurveto
            180 991 28 callsubr
            -166 -932 rlineto
            -153 -27 -70 -78 -106 hhcurveto
            -98 -84 62 124 20 3 24 5 27 hvcurveto
            161 906 28 callsubr
            return
          </CharString>
          <CharString index="4">
            136 442 rmoveto
            -1 -12 -1 -16 -13 vvcurveto
            -250 246 -180 342 351 223 192 303 176 -120 130 -228 70 vhcurveto
            -144 44 rlineto
            -110 34 -53 51 71 vvcurveto
            91 74 57 117 107 84 -72 -91 -16 0 -2 -1 -5 vhcurveto
            345 hlineto
            2 10 0 6 22 vvcurveto
            254 -1 -224 176 -322 hhcurveto
            -329 -226 -195 -284 -184 115 -135 214 -66 hvcurveto
            150 -46 rlineto
            124 -38 55 -50 -74 vvcurveto
            -85 -85 -61 -120 -144 -96 68 103 14 0 0 1 3 vhcurveto
            return
          </CharString>
          <CharString index="5">
            -328 -365 -24 callgsubr
            154 197 rlineto
            20 hlineto
            88 -197 17 callsubr
            -198 365 rlineto
            return
          </CharString>
          <CharString index="6">
            rmoveto
            -350 69 callsubr
            -24 hlineto
            140 -52 -114 78 -154 hhcurveto
            -232 -165 -176 -297 -45 hvcurveto
            -25 -163 rlineto
            -7 -49 -3 -36 -46 vvcurveto
            -212 137 -140 207 150 139 92 129 45 vhcurveto
            22 hlineto
            -41 -234 rlineto
            -115 -20 -78 -65 -120 hhcurveto
            -101 -71 37 57 -11 hvcurveto
            -344 hlineto
            -1 -4 0 0 -24 vvcurveto
            -181 203 -124 296 330 221 155 266 47 vhcurveto
            -282 484 rmoveto
            -114 -20 -75 -72 -99 hhcurveto
            -92 -69 64 86 21 1 18 5 37 hvcurveto
            25 144 rlineto
            115 20 74 38 callsubr
            -21 -1 -18 -5 -37 hvcurveto
            endchar
          </CharString>
          <CharString index="7">
            91 -30 35 -27 -40 vvcurveto
            -56 -48 -28 -93 -96 -64 36 54 vhcurveto
            11 -345 vlineto
            -2 -16 -1 -10 -19 vvcurveto
            -178 206 -128 287 304 215 154 217 156 -90 94 -210 64 vhcurveto
            -154 47 rlineto
            -74 23 -42 37 43 vvcurveto
            50 54 33 84 84 57 -37 -55 vhcurveto
            -11 330 vlineto
            3 15 1 18 27 vvcurveto
            169 -192 124 -261 -307 -199 -147 -228 return
          </CharString>
          <CharString index="8">
            52 295 59 callgsubr
            150 853 55 callsubr
            52 295 rlineto
            -974 -64 callsubr
            304 -7 callsubr
            -304 -64 callsubr
            return
          </CharString>
          <CharString index="9">
            hlineto
            -95 callsubr
            return
          </CharString>
          <CharString index="10">
            rmoveto
            -44 callgsubr
            -764 hlineto
            -38 -212 rlineto
            return
          </CharString>
          <CharString index="11">
            89 505 rlineto
            133 hlineto
            154 -505 rlineto
            388 hlineto
            -181 547 176 60 106 122 32 183 rlinecurve
            6 35 3 33 32 vvcurveto
            262 -220 169 -285 vhcurveto
            -514 -98 callsubr
            573 1166 rmoveto
            136 hlineto
            112 72 -72 -102 -12 -1 -18 -3 -12 hvcurveto
            -117 -29 -77 -69 -144 hhcurveto
            -137 hlineto
            endchar
          </CharString>
          <CharString index="12">
            -254 -84 callgsubr
            return
          </CharString>
          <CharString index="13">
            626 1132 rmoveto
            -230 -166 -182 -301 -44 hvcurveto
            -27 -183 rlineto
            -7 -45 -3 -42 -44 vvcurveto
            -212 137 -140 207 143 119 85 136 47 vhcurveto
            22 hlineto
            -36 -204 75 callgsubr
            53 callgsubr
            -370 hlineto
            -109 -616 rlineto
            -22 hlineto
            131 -18 -119 87 -163 hhcurveto
            125 -276 rmoveto
            70 callgsubr
            -26 -2 -23 -4 -27 53 callsubr
            16 callsubr
            26 2 23 4 27 10 callgsubr
            return
          </CharString>
          <CharString index="14">
            1331 480 rmoveto
            4 16 3 25 1 23 rrcurveto
            -375 hlineto
            -1 -7 0 -5 -2 -11 rrcurveto
            -164 -31 -71 -75 -125 hhcurveto
            -110 -74 81 119 28 5 41 7 39 hvcurveto
            54 308 1 callgsubr
            328 215 181 328 62 vhcurveto
            return
          </CharString>
          <CharString index="15">
            47 264 rlineto
            -313 hlineto
            149 849 rlineto
            -652 87 callgsubr
            311 hlineto
            -103 -585 rlineto
            -340 hlineto
            -47 -264 rlineto
            return
          </CharString>
          <CharString index="16">
            89 callgsubr
            -22 -2 -27 -4 -21 27 callgsubr
            -99 -74 79 104 22 2 28 4 21 -6 callgsubr
            -74 -898 rmoveto
            293 210 171 279 49 80 callgsubr
            6 32 3 34 40 vvcurveto
            68 -16 57 -32 49 vhcurveto
            3 17 rlineto
            43 hlineto
            132 80 69 135 24 hvcurveto
            42 237 rlineto
            -269 hlineto
            -26 -149 rlineto
            -60 -10 -29 -22 -69 -126 -76 43 -183 hhcurveto
            -293 -211 -172 -277 -46 hvcurveto
            -26 -155 rlineto
            -8 -49 -4 -39 -27 vvcurveto
            -255 218 -191 292 vhcurveto
            endchar
          </CharString>
          <CharString index="17">
            778 26 callgsubr
            -433 -98 callsubr
            592 hlineto
            352 221 230 446 78 hvcurveto
            6 32 4 32 2 34 rrcurveto
            3 34 1 35 39 vvcurveto
            352 -215 209 -357 vhcurveto
            -61 -290 rmoveto
            150 96 -109 -180 -32 -1 -32 -2 -30 hvcurveto
            -2 -29 -3 -27 -4 -20 rrcurveto
            -273 -48 -88 -126 -196 hhcurveto
            -109 hlineto
            151 858 rlineto
            return
          </CharString>
          <CharString index="18">
            rmoveto
            11 59 6 67 62 vvcurveto
            250 -189 164 -289 -287 -215 -164 -256 -47 vhcurveto
            342 hlineto
            107 33 53 41 97 hhcurveto
            99 54 -65 -120 -5 0 -6 -1 -6 hvcurveto
            -352 hlineto
            -38 -217 rlineto
            356 hlineto
            -138 -28 -69 -69 -109 hhcurveto
            -87 -65 59 78 17 0 3 1 4 hvcurveto
            -342 hlineto
            -3 -27 -1 -28 -21 vvcurveto
            -209 200 -148 283 293 220 170 265 49 vhcurveto
            return
          </CharString>
          <CharString index="19">
            rmoveto
            -25 callgsubr
            -83 -471 rlineto
            -8 -44 -4 -40 -35 vvcurveto
            -163 103 -82 205 vhcurveto
            353 hlineto
            46 259 91 callgsubr
            -59 -31 27 50 5 0 4 2 13 hvcurveto
            84 477 rlineto
            380 hlineto
            -8 callsubr
            return
          </CharString>
          <CharString index="20">
            -1 callgsubr
            -250 189 -164 289 289 215 168 262 48 vhcurveto
            -342 hlineto
            -114 -35 -52 -44 -99 hhcurveto
            -99 -54 65 120 26 6 48 8 45 hvcurveto
            18 100 90 callsubr
            70 74 113 hhcurveto
            87 65 -63 -84 -17 0 -3 -1 -4 hvcurveto
            return
          </CharString>
          <CharString index="21">
            rmoveto
            77 37 -139 157 hhcurveto
            149 113 134 180 98 callsubr
            -82 -18 -29 -37 -40 -77 -38 139 -157 hhcurveto
            -148 -112 -125 -195 -36 hvcurveto
            210 hlineto
            84 18 31 41 40 hhcurveto
            endchar
          </CharString>
          <CharString index="22">
            rmoveto
            -40 -824 -24 callgsubr
            460 1443 rlineto
            -326 hlineto
            -115 -450 -130 -552 rlineto
            -20 hlineto
            36 672 rlineto
            -268 hlineto
            -200 -672 rlineto
            -20 hlineto
            64 552 43 450 92 callsubr
            -48 -1443 -24 callgsubr
            250 824 rlineto
            return
          </CharString>
          <CharString index="23">
            rmoveto
            330 hlineto
            337 350 41 callsubr
            -166 -190 rlineto
            -20 hlineto
            -98 190 rlineto
            -289 hlineto
            return
          </CharString>
          <CharString index="24">
            rmoveto
            54 10 33 25 41 hhcurveto
            35 28 -23 -35 -7 -2 -10 -3 -18 hvcurveto
            -134 -761 rlineto
            287 hlineto
            140 781 rlineto
            50 9 34 23 40 hhcurveto
            35 28 -23 -35 -7 -2 -9 -3 -19 hvcurveto
            -134 -761 rlineto
            292 hlineto
            143 809 rlineto
            9 52 4 45 38 vvcurveto
            118 -68 77 -106 -97 -79 -77 -133 -38 vhcurveto
            -38 hlineto
            128 -71 82 -111 -99 -76 -75 -135 -39 vhcurveto
            -38 hlineto
            32 184 rlineto
            -298 -49 callgsubr
            293 hlineto
            return
          </CharString>
          <CharString index="25">
            rmoveto
            328 365 rlineto
            -313 hlineto
            -154 -197 rlineto
            -20 hlineto
            -88 197 rlineto
            -305 hlineto
            198 -365 rlineto
            return
          </CharString>
          <CharString index="26">
            -6 callsubr
            58 4 43 11 66 hvcurveto
            794 133 rmoveto
            11 58 3 52 110 24 callgsubr
            -55 -3 -50 -115 vvcurveto
            -279 220 -205 299 339 214 202 382 67 vhcurveto
            endchar
          </CharString>
          <CharString index="27">
            1303 399 rmoveto
            -251 hlineto
            57 callsubr
            15 0 12 8 40 hvcurveto
            472 hlineto
            22 126 rlineto
            11 68 7 75 59 vvcurveto
            216 -116 143 -176 -101 -100 -59 -86 -45 vhcurveto
            -7 hlineto
            101 -36 -68 44 -123 hhcurveto
            -194 -157 -166 -237 -30 hvcurveto
            263 hlineto
            88 13 38 49 55 hhcurveto
            38 25 -27 -41 -25 -2 -14 -6 -34 hvcurveto
            -10 -57 -115 -6 rlineto
            -237 -12 -159 -159 -224 vvcurveto
            -172 118 -128 159 127 110 72 116 51 vhcurveto
            7 hlineto
            -121 34 83 -67 115 hhcurveto
            196 145 151 263 57 hvcurveto
            -222 290 rmoveto
            -196 hlineto
            2 11 2 10 3 10 rrcurveto
            102 24 44 62 51 hhcurveto
            49 28 -40 -72 -25 -2 -22 -5 -36 hvcurveto
            -634 -431 rmoveto
            -47 -31 31 47 71 54 54 74 3 hvcurveto
            84 3 -4 -35 rlineto
            -104 -12 -52 -70 -66 hhcurveto
            return
          </CharString>
          <CharString index="28">
            190 525 rmoveto
            -26 callgsubr
            -33 callgsubr
            343 -19 rmoveto
            134 28 66 67 109 hhcurveto
            -20 callsubr
            hvcurveto
            -17 vlineto
            -38 -230 rmoveto
            -134 -28 -67 -66 -108 89 callsubr
            hvcurveto
            17 vlineto
            return
          </CharString>
          <CharString index="29">
            rmoveto
            355 362 rlineto
            -376 hlineto
            -307 -362 rlineto
            return
          </CharString>
          <CharString index="30">
            93 77 76 94 return
          </CharString>
          <CharString index="31">
            1175 44 callgsubr
            -358 hlineto
            -99 -566 rlineto
            -368 hlineto
            99 566 rlineto
            -358 -98 callsubr
            358 88 callsubr
            368 hlineto
            -103 -582 rlineto
            return
          </CharString>
          <CharString index="32">
            837 -17 rmoveto
            222 157 171 312 95 callgsubr
            8 47 4 44 40 vvcurveto
            229 -158 123 -186 -132 -129 -79 -144 -50 vhcurveto
            -22 hlineto
            36 204 58 callgsubr
            -261 -1481 75 callgsubr
            102 567 rlineto
            22 hlineto
            -124 11 113 -92 176 94 callsubr
            -99 -62 70 80 28 1 44 callsubr
            31 174 rlineto
            123 22 80 63 92 hhcurveto
            99 62 -70 -80 -28 -2 -23 -4 -25 53 callsubr
            -123 -22 -79 -63 -92 hhcurveto
            return
          </CharString>
          <CharString index="33">
            rmoveto
            316 hlineto
            361 326 rlineto
            -362 hlineto
            return
          </CharString>
          <CharString index="34">
            453 430 rmoveto
            45 571 rlineto
            27 hlineto
            55 -662 rlineto
            234 hlineto
            281 662 rlineto
            27 hlineto
            -157 -571 -76 -430 rlineto
            300 -53 callsubr
            -369 hlineto
            -313 -785 rlineto
            -20 hlineto
            -37 785 rlineto
            -373 -98 callsubr
            300 hlineto
            return
          </CharString>
          <CharString index="35">
            rmoveto
            -399 hlineto
            -345 -732 rlineto
            -18 hlineto
            -98 732 rlineto
            -377 hlineto
            238 -1080 rlineto
            -57 -46 -53 -24 -78 hhcurveto
            -32 -32 3 6 -20 hvcurveto
            -51 -290 rlineto
            -6 5 89 -10 48 hhcurveto
            243 167 123 305 173 hvcurveto
            return
          </CharString>
          <CharString index="36">
            rmoveto
            212 537 rlineto
            19 hlineto
            20 -537 rlineto
            21 -581 rmoveto
            385 hlineto
            -154 1443 rlineto
            -450 38 callgsubr
            379 hlineto
            125 317 rlineto
            365 hlineto
            endchar
          </CharString>
          <CharString index="37">
            128 35 75 98 109 vvcurveto
            181 -180 120 -287 -291 -196 -150 -235 -38 vhcurveto
            328 hlineto
            81 27 53 43 97 hhcurveto
            81 55 -37 -56 -70 -57 -39 -102 hvcurveto
            -158 hlineto
            -38 -217 rlineto
            170 hlineto
            96 46 -33 -56 -67 -58 -60 -112 -107 -71 47 91 -4 hvcurveto
            -331 hlineto
            -1 -13 -1 -14 -12 vvcurveto
            return
          </CharString>
          <CharString index="38">
            290 212 168 282 50 return
          </CharString>
          <CharString index="39">
            332 rmoveto
            104 109 208 -441 rlineto
            389 hlineto
            -302 615 499 498 rlineto
            -426 hlineto
            -387 -416 rlineto
            -19 hlineto
            69 callgsubr
            -353 hlineto
            -270 -1530 rlineto
            353 hlineto
            return
          </CharString>
          <CharString index="40">
            rmoveto
            51 286 rlineto
            71 hlineto
            62 34 -42 -76 -104 -56 -64 -92 hvcurveto
            26 544 rmoveto
            54 307 rlineto
            -293 -49 callgsubr
            376 hlineto
            270 191 190 268 220 -127 128 -217 hvcurveto
            653 -806 41 callgsubr
            -309 35 callgsubr
          </CharString>
          <CharString index="41">
            rmoveto
            -89 -503 rlineto
            362 -53 callsubr
            -573 hlineto
            -388 -224 -230 -298 -155 76 -133 127 -65 hvcurveto
            -423 -562 rlineto
            395 hlineto
            361 503 rlineto
            22 257 rmoveto
            -106 -75 75 107 127 99 97 125 hvcurveto
            174 hlineto
            -72 -406 rlineto
            endchar
          </CharString>
          <CharString index="42">
            130 hmoveto
            1046 hlineto
            52 295 rlineto
            -601 hlineto
            3 19 738 896 41 233 rlineto
            -1014 -64 callsubr
            569 hlineto
            -3 -19 -738 -896 rlineto
            return
          </CharString>
          <CharString index="43">
            hlineto
            -52 -295 rlineto
            return
          </CharString>
          <CharString index="44">
            240 182 152 207 10 hvcurveto
            return
          </CharString>
          <CharString index="45">
            -7 callgsubr
            -135 130 -208 -140 -124 -80 -122 -66 vhcurveto
            return
          </CharString>
          <CharString index="46">
            254 1443 rlineto
            return
          </CharString>
          <CharString index="47">
            558 593 rmoveto
            178 hlineto
            111 70 -54 -86 -116 -84 -77 -126 -126 -85 71 105 19 0 1 1 5 hvcurveto
            -348 hlineto
            -3 -15 -2 -30 -25 vvcurveto
            -260 209 -160 342 348 249 195 273 150 -93 105 -158 28 vhcurveto
            3 19 rlineto
            181 23 137 158 187 vvcurveto
            216 -211 147 -308 -298 -217 -165 -266 -52 vhcurveto
            333 hlineto
            100 21 77 58 114 hhcurveto
            119 67 -53 -92 -115 -86 -72 -137 hvcurveto
            -178 hlineto
            return
          </CharString>
          <CharString index="48">
            27 callsubr
            310 hlineto
            567 852 rlineto
            19 hlineto
            -150 -852 rlineto
            312 -53 callsubr
            -310 hlineto
            -568 -860 rlineto
            -19 hlineto
            151 860 rlineto
            endchar
          </CharString>
          <CharString index="49">
            662 -28 rmoveto
            422 179 293 382 65 hvcurveto
            28 164 rlineto
            335 57 -126 326 -418 hhcurveto
            -355 -193 -225 -282 -79 hvcurveto
            375 hlineto
            102 27 74 99 127 hhcurveto
            138 46 -112 -225 -39 hvcurveto
            -4 -22 rlineto
            -766 hlineto
            0 -24 -83 -15 -85 vhcurveto
            -383 -69 175 -284 375 hhcurveto
            17 304 rmoveto
            -140 -27 123 115 20 hvcurveto
            4 23 108 callgsubr
            -4 -22 rlineto
            -134 -23 -83 -105 -143 hhcurveto
            return
          </CharString>
          <CharString index="50">
            966 hlineto
            47 266 rlineto
            -505 hlineto
            3 19 596 611 38 217 rlineto
            -937 hlineto
            -47 -266 rlineto
            499 hlineto
            -3 -19 -624 -639 rlineto
            return
          </CharString>
          <CharString index="51">
            rmoveto
            77 37 -128 157 hhcurveto
            149 113 124 165 98 callsubr
            -75 -18 -29 -34 -40 -77 -38 128 -157 hhcurveto
            -148 -112 -115 -181 -36 hvcurveto
            210 hlineto
            78 18 31 38 40 hhcurveto
            endchar
          </CharString>
          <CharString index="52">
            0 vmoveto
            371 hlineto
            331 457 rlineto
            17 hlineto
            171 -457 rlineto
            376 hlineto
            -294 724 548 719 rlineto
            -390 hlineto
            -319 -478 rlineto
            -18 hlineto
            -151 478 rlineto
            -388 hlineto
            279 -715 rlineto
            return
          </CharString>
          <CharString index="53">
            rmoveto
            254 350 rlineto
            -350 hlineto
            -210 -350 rlineto
            return
          </CharString>
          <CharString index="54">
            hlineto
            -61 callsubr
            return
          </CharString>
          <CharString index="55">
            434 551 rlineto
            -387 hlineto
            -226 -347 rlineto
            -19 hlineto
            -102 347 rlineto
            -399 hlineto
            235 -566 -429 -547 52 callsubr
            return
          </CharString>
          <CharString index="56">
            1214 303 rmoveto
            -593 hlineto
            201 1140 rlineto
            -361 8 callgsubr
            return
          </CharString>
          <CharString index="57">
            rmoveto
            -178 362 58 callgsubr
            228 -362 rlineto
            return
          </CharString>
          <CharString index="58">
            1398 903 rmoveto
            -51 callgsubr
            -54 -309 rlineto
            -34 callgsubr
            endchar
          </CharString>
          <CharString index="59">
            rmoveto
            88 72 71 89 89 -72 72 -88 -88 -73 -72 -89 -89 73 -71 88 hvcurveto
            784 hmoveto
            87 73 71 89 89 -73 72 -87 -88 -73 -72 -89 -89 73 -71 88 hvcurveto
            -579 1 rmoveto
            238 hlineto
            179 394 rlineto
            -328 hlineto
            endchar
          </CharString>
          <CharString index="60">
            rmoveto
            -239 -184 -139 -212 -39 hvcurveto
            247 hlineto
            100 22 75 60 100 hhcurveto
            91 61 -64 -96 -1 hvcurveto
            244 hlineto
            199 24 -164 152 -237 hhcurveto
            endchar
          </CharString>
          <CharString index="61">
            rmoveto
            -234 -41 -68 -94 -129 hhcurveto
            -84 -57 48 83 -19 hvcurveto
            443 463 -2 -18 -3 -20 -4 -23 rlinecurve
            -389 32 rmoveto
            234 41 69 94 129 hhcurveto
            85 58 -50 -85 18 hvcurveto
            -445 -463 2 20 3 21 4 24 rlinecurve
            983 808 rmoveto
            -153 hlineto
            -136 -142 rlineto
            106 -93 -142 65 -168 -2 callgsubr
            -55 -3 -50 -115 vvcurveto
            -80 18 -75 33 -64 vhcurveto
            -226 -236 rlineto
            160 hlineto
            133 139 rlineto
            -105 93 142 -63 166 hhcurveto
            339 214 202 382 67 hvcurveto
            96 callgsubr
            80 -18 74 -33 65 vhcurveto
            endchar
          </CharString>
          <CharString index="62">
            rmoveto
            218 hlineto
            229 394 rlineto
            -308 hlineto
            return
          </CharString>
          <CharString index="63">
            583 840 -6 callsubr
            59 4 43 11 65 hvcurveto
            447 -902 rmoveto
            -4 -8 -50 -4 -45 hhcurveto
            -68 -49 39 56 75 49 51 161 94 hvcurveto
            169 99 109 174 42 242 37 213 rcurveline
            11 60 3 53 107 24 callgsubr
            -56 -3 -50 -114 vvcurveto
            -279 220 -205 289 10 vhcurveto
            -4 -20 rlineto
            -124 -55 -46 -81 -80 34 callsubr
            return
          </CharString>
          <CharString index="64">
            -9 callsubr
            -203 124 -146 201 -48 vhcurveto
            -58 -93 -80 callgsubr
            49 77 274 11 202 165 46 253 rlinecurve
            -342 hlineto
            -114 -35 -52 -44 -99 hhcurveto
            -99 -54 65 120 26 6 48 8 45 hvcurveto
            18 100 90 callsubr
            70 74 113 hhcurveto
            87 65 -63 -84 -17 0 -3 -1 -4 hvcurveto
            endchar
          </CharString>
          <CharString index="65">
            205 470 rlineto
            85 hlineto
            -83 -470 rlineto
            267 hlineto
            83 470 rlineto
            87 hlineto
            38 -470 rlineto
            292 hlineto
            -69 590 265 523 rlineto
            -278 hlineto
            -220 -447 rlineto
            -81 hlineto
            79 447 rlineto
            -267 hlineto
            -79 -447 rlineto
            -80 hlineto
            -60 447 rlineto
            -280 hlineto
            82 -524 -278 -589 rlineto
            endchar
          </CharString>
          <CharString index="66">
            -119 -535 rlineto
            -213 -47 -47 -79 -87 hhcurveto
            -22 -28 5 7 -22 hvcurveto
            -54 -294 rlineto
            -8 26 56 -10 49 hhcurveto
            225 160 135 431 99 hvcurveto
            return
          </CharString>
          <CharString index="67">
            934 -26 rmoveto
            160 143 107 405 70 hvcurveto
            20 114 9 101 87 vvcurveto
            131 -24 136 -34 58 vhcurveto
            -298 hlineto
            42 -110 15 -103 -116 vvcurveto
            -90 -9 -89 -15 -98 vhcurveto
            -219 -34 -32 -25 -48 hhcurveto
            -42 -14 29 51 19 3 32 7 44 hvcurveto
            60 358 rlineto
            -282 hlineto
            -63 -358 rlineto
            -122 -21 -29 -53 -46 hhcurveto
            -39 -19 19 53 50 9 68 13 74 hvcurveto
            61 344 67 111 103 131 rrcurveto
            -308 hlineto
            -103 -135 -70 -180 -44 -252 rrcurveto
            -15 -86 -10 -102 -76 vvcurveto
            -214 77 -94 164 143 113 76 149 50 vhcurveto
            16 hlineto
            -140 16 86 -85 152 hhcurveto
            return
          </CharString>
          <CharString index="68">
            -105 callsubr
            344 hlineto
            endchar
          </CharString>
          <CharString index="69">
            103 63 -73 -119 return
          </CharString>
          <CharString index="70">
            -102 -587 rlineto
            -1 -78 -69 -134 -141 -56 96 172 30 vhcurveto
            68 389 28 callsubr
            -72 -410 rlineto
            -341 -60 151 -214 295 hhcurveto
            121 98 24 44 70 hvcurveto
            19 hlineto
            return
          </CharString>
          <CharString index="71">
            -196 -1113 rlineto
            return
          </CharString>
          <CharString index="72">
            -77 callsubr
            94 -77 76 -93 return
          </CharString>
          <CharString index="73">
            rmoveto
            -130 351 rlineto
            -305 hlineto
            177 -351 rlineto
            -490 hmoveto
            -9 callgsubr
          </CharString>
          <CharString index="74">
            1922 rmoveto
            -358 hlineto
            247 -326 rlineto
            312 hlineto
            return
          </CharString>
          <CharString index="75">
            -104 callsubr
            endchar
          </CharString>
          <CharString index="76">
            -102 callgsubr
            endchar
          </CharString>
          <CharString index="77">
            -152 106 -112 142 73 75 28 40 34 vhcurveto
            15 hlineto
            -32 -110 -119 -80 -152 -13 -19 -109 rcurveline
            137 3 132 54 79 82 rrcurveto
            76 79 41 107 116 vvcurveto
            206 -125 137 -185 -162 -116 -115 -161 vhcurveto
            return
          </CharString>
          <CharString index="78">
            152 -106 112 -142 -73 -75 -28 -40 -34 vhcurveto
            -15 hlineto
            32 110 119 80 152 13 19 109 rcurveline
            -137 -3 -132 -54 -79 -82 rrcurveto
            -76 -79 -41 -107 -116 vvcurveto
            -206 125 -137 185 162 116 115 161 vhcurveto
            return
          </CharString>
          <CharString index="79">
            924 593 rmoveto
            48 274 rlineto
            -173 hlineto
            -104 -60 49 82 106 91 95 132 107 64 -57 -93 -11 -1 -11 -2 -12 hvcurveto
            333 hlineto
            5 29 2 29 26 vvcurveto
            232 -174 141 -296 -377 -222 -197 -256 -131 77 -102 127 -26 vhcurveto
            -3 -19 rlineto
            -231 -21 -137 -169 -190 vvcurveto
            -243 197 -147 312 330 250 180 282 62 vhcurveto
            -348 hlineto
            -109 -25 -93 -64 -131 hhcurveto
            -110 -61 50 86 115 76 82 157 hvcurveto
            return
          </CharString>
          <CharString index="80">
            -89 callgsubr
            65 102 return
          </CharString>
          <CharString index="81">
            106 callsubr
            269 363 90 callgsubr
            -691 -363 rmoveto
            264 hlineto
            269 363 90 callgsubr
            endchar
          </CharString>
          <CharString index="82">
            -20 -2 -27 -4 -23 return
          </CharString>
          <CharString index="83">
            -662 -84 callgsubr
            return
          </CharString>
          <CharString index="84">
            646 -26 rmoveto
            336 234 159 257 54 hvcurveto
            -364 hlineto
            -94 -25 -82 -50 -112 hhcurveto
            -120 -51 41 65 63 47 36 88 hvcurveto
            177 hlineto
            41 225 rlineto
            -126 hlineto
            -89 -54 24 71 64 58 44 100 120 60 -52 -79 12 hvcurveto
            337 hlineto
            250 -26 -174 144 -333 hhcurveto
            -282 -207 -116 -228 -96 34 -67 100 -46 hvcurveto
            -4 -21 rlineto
            -160 -36 -82 -88 -148 vvcurveto
            -201 189 -121 304 vhcurveto
            return
          </CharString>
          <CharString index="85">
            574 hlineto
            38 216 rlineto
            -293 hlineto
            3 19 393 661 38 217 rlineto
            -545 hlineto
            -38 -216 rlineto
            293 hlineto
            -3 -19 -427 -689 rlineto
            -461 1254 27 callsubr
            277 hlineto
            297 76 115 617 108 hvcurveto
            29 169 14 123 96 vvcurveto
            230 -77 93 -193 vhcurveto
            -69 -214 rmoveto
            40 hlineto
            37 16 -32 -77 -76 -15 -122 -34 -190 hvcurveto
            -425 -75 -33 -93 -75 hhcurveto
            -40 hlineto
            endchar
          </CharString>
          <CharString index="86">
            rmoveto
            -114 -35 -52 -44 -99 hhcurveto
            -99 -54 65 120 7 0 10 1 10 hvcurveto
            328 hlineto
            38 217 92 callsubr
            131 29 69 66 106 hhcurveto
            87 65 -63 -84 -17 0 -3 -1 -4 hvcurveto
            342 hlineto
            3 27 1 28 21 vvcurveto
            215 -200 152 -283 -293 -220 -170 -265 -49 vhcurveto
            -25 -133 rlineto
            -11 -59 -6 -67 -62 vvcurveto
            -250 189 -164 289 289 215 168 262 48 vhcurveto
            endchar
          </CharString>
          <CharString index="87">
            100 73 -77 -107 return
          </CharString>
          <CharString index="88">
            rmoveto
            287 204 172 285 50 hvcurveto
            139 787 rlineto
            -79 callgsubr
            vhcurveto
            endchar
          </CharString>
          <CharString index="89">
            rmoveto
            138 112 113 137 138 -112 112 -138 -137 -113 -112 -138 -137 113 -113 137 hvcurveto
            return
          </CharString>
          <CharString index="90">
            rmoveto
            86 callsubr
            383 hlineto
            -64 -102 -80 callgsubr
            65 102 rlineto
            378 hlineto
            52 295 rlineto
            -587 hlineto
            52 295 rlineto
            550 hlineto
            48 270 rlineto
            -550 hlineto
            50 288 rlineto
            endchar
          </CharString>
          <CharString index="91">
            -1364 19 callsubr
            478 rmoveto
            0 callgsubr
            104 callgsubr
            endchar
          </CharString>
          <CharString index="92">
            599 262 rmoveto
            44 246 rlineto
            142 hlineto
            82 38 -37 -63 -87 -52 -59 -112 hvcurveto
            -53 504 rmoveto
            27 152 rlineto
            408 hlineto
            34 195 rlineto
            -408 hlineto
            74 417 103 callgsubr
            -74 -417 rlineto
            -183 hlineto
            -34 -195 rlineto
            183 hlineto
            -162 -918 rlineto
            566 hlineto
            321 175 206 232 212 -147 116 -254 hvcurveto
            endchar
          </CharString>
          <CharString index="93">
            -64 callsubr
            200 -7 callsubr
            -200 -64 callsubr
            767 hlineto
            52 295 rlineto
            -200 hlineto
            150 853 68 callsubr
            return
          </CharString>
          <CharString index="94">
            55 callgsubr
            -143 -41 rmoveto
            -340 hlineto
            -317 -275 rlineto
            298 -45 callgsubr
            298 hlineto
            endchar
          </CharString>
          <CharString index="95">
            -179 -843 rlineto
            -209 -44 -33 -81 -95 hhcurveto
            -22 -20 3 6 -19 hvcurveto
            -57 -319 rlineto
            -10 32 67 -9 40 hhcurveto
            303 return
          </CharString>
          <CharString index="96">
            1388 26 callgsubr
            -917 hlineto
            -12 callsubr
            90 36 callsubr
            274 hlineto
            -147 -835 -55 -313 rlineto
            159 61 callsubr
            312 81 callgsubr
            -134 hlineto
            endchar
          </CharString>
          <CharString index="97">
            1346 1113 rmoveto
            -344 hlineto
            -72 -410 58 callsubr
            72 410 rlineto
            -344 -49 callgsubr
            344 hlineto
            76 431 rlineto
            346 hlineto
            -76 -431 rlineto
            return
          </CharString>
          <CharString index="98">
            1291 701 -1 callgsubr
            return
          </CharString>
          <CharString index="99">
            47 263 rlineto
            -389 hlineto
            60 345 rlineto
            return
          </CharString>
          <CharString index="100">
            hlineto
            -150 -853 rlineto
            return
          </CharString>
          <CharString index="101">
            rmoveto
            234 41 69 94 129 79 callgsubr
            -57 -4 -42 -12 -69 hvcurveto
            -36 -205 rlineto
            -234 -41 -68 -94 -129 hhcurveto
            -38 callgsubr
            return
          </CharString>
          <CharString index="102">
            -491 -104 callgsubr
            return
          </CharString>
          <CharString index="103">
            rmoveto
            305 237 241 308 308 -237 241 -305 -305 -237 -241 -308 -308 237 -241 305 hvcurveto
            98 vmoveto
            -244 -192 198 253 253 192 198 244 244 192 -198 -253 -253 -192 -198 -244 hvcurveto
            return
          </CharString>
          <CharString index="104">
            -240 -182 -152 -207 -10 hvcurveto
            251 hlineto
            106 13 64 62 94 hhcurveto
            94 59 -67 -101 -7 hvcurveto
            return
          </CharString>
          <CharString index="105">
            rmoveto
            -327 46 callsubr
            -285 80 callsubr
            285 hlineto
            342 143 117 328 58 hvcurveto
            return
          </CharString>
          <CharString index="106">
            1760 rmoveto
            243 241 rlineto
            -279 hlineto
            -198 -241 rlineto
            70 -539 rmoveto
            139 101 97 135 135 -101 97 -139 -139 -101 -97 -135 -135 101 -97 139 hvcurveto
            146 vmoveto
            -51 -36 36 50 50 36 36 51 51 36 -36 -50 -50 -36 -36 -51 hvcurveto
            return
          </CharString>
          <CharString index="107">
            -54 -309 rlineto
            -9 -48 -4 -44 -51 vvcurveto
            return
          </CharString>
          <CharString index="108">
            rmoveto
            -1492 -1284 -28 -159 1492 1284 rlineto
            endchar
          </CharString>
          <CharString index="109">
            rmoveto
            -101 -82 -82 -101 -101 82 -82 101 101 82 82 101 101 -82 82 -101 hvcurveto
            return
          </CharString>
          <CharString index="110">
            hlineto
            -50 -285 rlineto
            320 hlineto
            return
          </CharString>
          <CharString index="111">
            252 1113 rmoveto
            179 -1113 rlineto
            408 hlineto
            567 1113 rlineto
            -376 hlineto
            -329 -796 rlineto
            -19 hlineto
            -53 796 rlineto
            return
          </CharString>
          <CharString index="112">
            698 325 rmoveto
            -19 hlineto
            -41 1118 rlineto
            -384 hlineto
            155 -84 callgsubr
            449 hlineto
            662 1443 rlineto
            -380 hlineto
            return
          </CharString>
          <CharString index="113">
            1090 917 rmoveto
            -310 hlineto
            2 12 rlineto
            134 24 68 105 113 hhcurveto
            109 17 -123 -115 -21 hvcurveto
            -635 -18 rmoveto
            -35 -17 29 39 62 41 70 4 6 hvcurveto
            -228 hlineto
            -24 -31 -42 -93 -104 vvcurveto
            -158 86 -100 162 vhcurveto
            16 hlineto
            return
          </CharString>
          <CharString index="114">
            99 callgsubr
            -11 hvcurveto
            -48 -272 rlineto
            -3 23 60 -3 41 hhcurveto
            return
          </CharString>
          <CharString index="115">
            -151 91 -101 196 -64 vhcurveto
            return
          </CharString>
          <CharString index="116">
            rmoveto
            37 212 rlineto
            -764 hlineto
            -37 -212 rlineto
            547 327 rmoveto
            318 316 rlineto
            -329 hlineto
            -271 -316 rlineto
            return
          </CharString>
          <CharString index="117">
            1629 -23 callgsubr
            -435 363 rmoveto
            -274 hlineto
            178 -351 rlineto
            213 hlineto
            return
          </CharString>
          <CharString index="118">
            106 callsubr
            305 326 rlineto
            -292 hlineto
            -727 -326 106 callsubr
            305 326 rlineto
            -293 hlineto
            endchar
          </CharString>
          <CharString index="119">
            rmoveto
            -406 -417 rlineto
            322 hlineto
            407 417 2 9 -260 417 rlineto
            -322 hlineto
            259 -417 rlineto
            return
          </CharString>
          <CharString index="120">
            -327 hlineto
            -71 -27 -48 -32 -79 hhcurveto
            -92 -60 64 101 17 5 37 8 34 hvcurveto
            649 hlineto
            20 124 rlineto
            8 41 3 49 52 vvcurveto
            228 -188 167 -256 -264 -205 -173 -266 -51 vhcurveto
            endchar
          </CharString>
          <CharString index="121">
            rmoveto
            104 72 68 93 93 -72 67 -104 -104 -72 -67 -93 -93 72 -68 104 hvcurveto
            81 -353 rmoveto
            319 283 76 callsubr
            -156 -146 rlineto
            -22 hlineto
            -104 146 76 callsubr
            219 -283 rlineto
            endchar
          </CharString>
          <CharString index="122">
            1658 rmoveto
            -376 hlineto
            -307 -362 rlineto
            328 hlineto
            return
          </CharString>
          <CharString index="123">
            -115 -21 -74 -71 -99 hhcurveto
            -92 -69 64 86 return
          </CharString>
          <CharString index="124">
            rlineto
            305 hlineto
            return
          </CharString>
          <CharString index="125">
            rmoveto
            212 537 rlineto
            19 hlineto
            20 -537 rlineto
            406 -581 rmoveto
            -154 1443 rlineto
            -450 38 callgsubr
            379 hlineto
            125 317 rlineto
            365 hlineto
            12 -317 rlineto
            endchar
          </CharString>
          <CharString index="126">
            -101 callgsubr
            12 return
          </CharString>
          <CharString index="127">
            rlineto
            170 30 85 94 123 hhcurveto
            103 71 -75 -109 -33 -1 -20 -2 -22 hvcurveto
            373 hlineto
            -51 callgsubr
            return
          </CharString>
          <CharString index="128">
            734 1843 -65 callgsubr
            return
          </CharString>
          <CharString index="129">
            801 -262 rmoveto
            -6 -18 -27 -4 -29 hhcurveto
            -61 -39 33 50 78 74 78 107 33 hvcurveto
            -236 hlineto
            -131 -71 -70 -101 -117 vvcurveto
            -108 106 -82 139 62 62 12 18 28 vhcurveto
            endchar
          </CharString>
          <CharString index="130">
            929 hmoveto
            272 hlineto
            25 139 rlineto
            65 hlineto
            27 158 rlineto
            -65 hlineto
            74 420 rlineto
            -392 hlineto
            -101 -129 -133 -180 -52 -78 -41 -235 rcurveline
            338 hlineto
            -80 207 rmoveto
            return
          </CharString>
          <CharString index="131">
            222 181 127 173 25 hvcurveto
            -229 hlineto
            -82 -10 -77 -54 -105 hhcurveto
            -95 -63 54 82 hvcurveto
            return
          </CharString>
          <CharString index="132">
            hlineto
            6 callgsubr
            return
          </CharString>
          <CharString index="133">
            -65 callgsubr
            endchar
          </CharString>
          <CharString index="134">
            rmoveto
            -95 callsubr
            return
          </CharString>
          <CharString index="135">
            rlineto
            -367 hlineto
            return
          </CharString>
          <CharString index="136">
            579 -5 callsubr
            return
          </CharString>
          <CharString index="137">
            -1296 33 callsubr
          </CharString>
          <CharString index="138">
            108 66 101 165 86 -50 46 -94 -108 -66 -102 -164 -86 50 -46 94 hvcurveto
            return
          </CharString>
          <CharString index="139">
            1631 -97 callsubr
            return
          </CharString>
          <CharString index="140">
            rmoveto
            -92 callsubr
            endchar
          </CharString>
          <CharString index="141">
            vvcurveto
            -126 124 -88 178 65 56 8 15 38 vhcurveto
            return
          </CharString>
          <CharString index="142">
            202 1148 rlineto
            return
          </CharString>
          <CharString index="143">
            216 389 78 hvcurveto
            113 562 rlineto
            return
          </CharString>
          <CharString index="144">
            -38 callgsubr
            58 4 43 11 66 hvcurveto
            return
          </CharString>
          <CharString index="145">
            71 99 hhcurveto
            70 callgsubr
            return
          </CharString>
          <CharString index="146">
            rlineto
            -7 -40 -4 -38 -34 vvcurveto
            -222 174 -129 316 329 224 201 279 232 -175 119 -289 vhcurveto
            endchar
          </CharString>
          <CharString index="147">
            hlineto
            -47 -264 rlineto
            161 hlineto
            return
          </CharString>
          <CharString index="148">
            rlineto
            -307 hlineto
            return
          </CharString>
          <CharString index="149">
            967 1785 rmoveto
            20 hlineto
            98 -190 rlineto
            289 hlineto
            -213 350 92 callsubr
            -337 -350 rlineto
            307 hlineto
            return
          </CharString>
          <CharString index="150">
            rlineto
            -297 -98 callsubr
            return
          </CharString>
          <CharString index="151">
            23 4 25 hvcurveto
            return
          </CharString>
          <CharString index="152">
            48 callgsubr
            -36 -200 rlineto
            -162 hlineto
            -34 -195 rlineto
            162 hlineto
            return
          </CharString>
          <CharString index="153">
            78 callsubr
            -90 -16 -54 -46 -91 hhcurveto
            return
          </CharString>
          <CharString index="154">
            -120 -93 -84 -109 -109 93 -84 120 return
          </CharString>
          <CharString index="155">
            rmoveto
            -353 hlineto
            return
          </CharString>
          <CharString index="156">
            rmoveto
            -66 callgsubr
            endchar
          </CharString>
          <CharString index="157">
            rlineto
            275 hlineto
            34 195 rlineto
            -275 hlineto
            34 192 rlineto
            268 hlineto
            -26 -150 83 callsubr
            endchar
          </CharString>
          <CharString index="158">
            26 callgsubr
            -1182 -64 callsubr
            200 hlineto
            return
          </CharString>
          <CharString index="159">
            100 callsubr
            238 341 rlineto
            return
          </CharString>
          <CharString index="160">
            hvcurveto
            66 callgsubr
            return
          </CharString>
          <CharString index="161">
            -365 hlineto
            -290 -656 rlineto
            -18 hlineto
            -58 656 rlineto
            -363 -49 callgsubr
            263 hlineto
            return
          </CharString>
          <CharString index="162">
            rlineto
            304 hlineto
            return
          </CharString>
          <CharString index="163">
            192 39 -179 167 -243 hhcurveto
            return
          </CharString>
          <CharString index="164">
            -94 -24 -45 -50 -60 hhcurveto
            -56 -36 55 86 return
          </CharString>
          <CharString index="165">
            rlineto
            -346 hlineto
            return
          </CharString>
          <CharString index="166">
            228 664 rlineto
            -266 79 callsubr
            return
          </CharString>
          <CharString index="167">
            rlineto
            -160 87 callgsubr
            return
          </CharString>
          <CharString index="168">
            hlineto
            -51 -285 rlineto
            return
          </CharString>
          <CharString index="169">
            -11 callgsubr
            endchar
          </CharString>
          <CharString index="170">
            hlineto
            -53 -302 rlineto
            endchar
          </CharString>
          <CharString index="171">
            1571 -104 callgsubr
            return
          </CharString>
          <CharString index="172">
            1 2 -12 hvcurveto
            -48 -272 rlineto
            -3 return
          </CharString>
          <CharString index="173">
            -69 callsubr
            80 callgsubr
            7 37 2 35 34 vvcurveto
            return
          </CharString>
          <CharString index="174">
            40 callsubr
            -104 -585 60 callsubr
            return
          </CharString>
          <CharString index="175">
            83 callsubr
            -35 -200 rlineto
            325 hlineto
            return
          </CharString>
          <CharString index="176">
            hlineto
            -35 -199 rlineto
            return
          </CharString>
          <CharString index="177">
            87 73 72 88 88 -73 72 -87 -87 -73 -72 -88 -88 73 -72 87 hvcurveto
            return
          </CharString>
          <CharString index="178">
            1296 -50 callsubr
            return
          </CharString>
          <CharString index="179">
            1945 rmoveto
            -118 267 rlineto
            -293 hlineto
            172 -267 rlineto
            return
          </CharString>
          <CharString index="180">
            239 184 139 212 39 hvcurveto
            return
          </CharString>
          <CharString index="181">
            hvcurveto
            101 callgsubr
            return
          </CharString>
          <CharString index="182">
            10 30 46 6 40 hhcurveto
            60 30 -20 -41 -37 -40 -37 -66 -23 hvcurveto
            return
          </CharString>
          <CharString index="183">
            rlineto
            -298 hlineto
            return
          </CharString>
          <CharString index="184">
            hlineto
            -202 -1148 rlineto
            return
          </CharString>
          <CharString index="185">
            hlineto
            -191 -1085 rlineto
            return
          </CharString>
          <CharString index="186">
            hlineto
            -209 -664 rlineto
            return
          </CharString>
          <CharString index="187">
            hlineto
            91 callsubr
            return
          </CharString>
          <CharString index="188">
            148 841 rlineto
            return
          </CharString>
          <CharString index="189">
            rlineto
            354 hlineto
            return
          </CharString>
          <CharString index="190">
            rlineto
            290 hlineto
            return
          </CharString>
          <CharString index="191">
            rmoveto
            164 931 rlineto
            -360 hlineto
            -164 -931 rlineto
            return
          </CharString>
          <CharString index="192">
            hvcurveto
            -61 callsubr
            endchar
          </CharString>
          <CharString index="193">
            52 295 rlineto
            -954 -98 callsubr
            return
          </CharString>
          <CharString index="194">
            hlineto
            29 164 rlineto
            return
          </CharString>
          <CharString index="195">
            hlineto
            103 582 rlineto
            return
          </CharString>
          <CharString index="196">
            hhcurveto
            -96 -77 76 107 return
          </CharString>
          <CharString index="197">
            rlineto
            148 26 return
          </CharString>
          <CharString index="198">
            -48 -270 rlineto
            return
          </CharString>
          <CharString index="199">
            rlineto
            -330 hlineto
            return
          </CharString>
          <CharString index="200">
            rmoveto
            60 339 rlineto
            -1060 hlineto
            -60 -339 rlineto
            return
          </CharString>
          <CharString index="201">
            hhcurveto
            -123 287 rmoveto
            return
          </CharString>
          <CharString index="202">
            rlineto
            -310 hlineto
            return
          </CharString>
          <CharString index="203">
            19 callgsubr
            -11 -55 -3 -50 -115 vvcurveto
            return
          </CharString>
          <CharString index="204">
            1520 26 callgsubr
            return
          </CharString>
          <CharString index="205">
            33 hvcurveto
            -210 hlineto
            return
          </CharString>
          <CharString index="206">
            48 272 rlineto
            return
          </CharString>
          <CharString index="207">
            rlineto
            373 hlineto
            return
          </CharString>
          <CharString index="208">
            rlineto
            -358 hlineto
            return
          </CharString>
          <CharString index="209">
            -136 -136 return
          </CharString>
          <CharString index="210">
            32 183 rlineto
            return
          </CharString>
          <CharString index="211">
            65 56 8 15 38 vhcurveto
            33 179 rlineto
            return
          </CharString>
          <CharString index="212">
            hlineto
            206 1168 rlineto
            -248 hlineto
            return
          </CharString>
          <CharString index="213">
            rmoveto
            265 hlineto
            return
          </CharString>
          <CharString index="214">
            50 285 rlineto
            return
          </CharString>
          <CharString index="215" raw="1">
            05f81006 0b  
          </CharString>
        <CharString name=".notdef">
          endchar
        </CharString>
        <CharString name="A">
          609 581 -71 callsubr
        </CharString>
        <CharString name="AE">
          691 589 -37 callgsubr
        </CharString>
        <CharString name="AEacute">
          1560 3 callgsubr
          -416 -483 rmoveto
          -92 -524 rlineto
          -150 hlineto
          160 524 rlineto
          -701 -1113 rmoveto
          362 hlineto
          93 305 rlineto
          186 hlineto
          -54 -305 rlineto
          671 hlineto
          52 295 rlineto
          -343 hlineto
          52 295 rlineto
          307 hlineto
          48 270 41 callsubr
          50 288 rlineto
          343 hlineto
          52 295 rlineto
          -976 hlineto
          endchar
        </CharString>
        <CharString name="AEmacron">
          1462 1843 37 callgsubr
          -733 -1042 -37 callgsubr
        </CharString>
        <CharString name="Aacute">
          1432 3 callgsubr
          -462 -1015 -101 callgsubr
          endchar
        </CharString>
        <CharString name="Abreve">
          1129 -8 callgsubr
          -767 -1351 -101 callgsubr
          endchar
        </CharString>
        <CharString name="Abreveacute">
          1335 2212 rmoveto
          -301 hlineto
          -212 -267 rlineto
          247 hlineto
          -460 -16 callsubr
        </CharString>
        <CharString name="Abrevedotbelow">
          1129 -8 callgsubr
          -797 -2057 2 callsubr
          30 706 -101 callgsubr
          endchar
        </CharString>
        <CharString name="Abrevegrave">
          1072 72 callsubr
          -224 -16 callsubr
        </CharString>
        <CharString name="Abrevehookabove">
          924 1830 rmoveto
          68 callgsubr
          -28 -148 rlineto
          75 callsubr
          266 -57 rmoveto
          -82 -10 -77 -54 -105 hhcurveto
          -95 -63 54 82 hvcurveto
          -223 hlineto
          57 callgsubr
          222 181 127 173 25 hvcurveto
          -743 -1300 -101 callgsubr
          endchar
        </CharString>
        <CharString name="Abrevetilde">
          1208 2203 rmoveto
          46 callgsubr
          71 callgsubr
          -803 -1622 -101 callgsubr
          -562 438 rmoveto
          57 callgsubr
          24 callsubr
          endchar
        </CharString>
        <CharString name="Acaron">
          1073 1585 rmoveto
          337 350 41 callsubr
          -166 -190 rlineto
          -20 hlineto
          -98 190 rlineto
          -289 hlineto
          213 -350 rlineto
          -134 -1004 -101 callgsubr
          endchar
        </CharString>
        <CharString name="Acircumflex">
          42 callsubr
          -192 -1014 -101 callgsubr
          endchar
        </CharString>
        <CharString name="Acircumflexacute">
          609 581 -101 callgsubr
          -334 413 rmoveto
          -317 -275 rlineto
          302 -45 callgsubr
          294 hlineto
          -221 275 rlineto
          311 356 rmoveto
          -217 -315 rlineto
          273 hlineto
          249 315 rlineto
          endchar
        </CharString>
        <CharString name="Acircumflexdotbelow">
          42 callsubr
          -222 -1720 2 callsubr
          30 706 -101 callgsubr
          endchar
        </CharString>
        <CharString name="Acircumflexgrave">
          1534 1897 55 callgsubr
          -658 -1316 -101 callgsubr
          -328 413 rmoveto
          -317 -275 rlineto
          298 -45 callgsubr
          298 hlineto
          -221 275 rlineto
          endchar
        </CharString>
        <CharString name="Acircumflexhookabove">
          609 581 -101 callgsubr
          -328 413 rmoveto
          -317 -275 rlineto
          298 -45 callgsubr
          298 hlineto
          -221 275 rlineto
          12 191 rmoveto
          11 27 48 8 44 hhcurveto
          64 30 -23 -43 -41 -42 -45 -85 -28 hvcurveto
          78 -115 rlineto
          158 45 91 96 128 vvcurveto
          116 -95 77 -131 -55 -51 -9 -15 -52 vhcurveto
          endchar
        </CharString>
        <CharString name="Acircumflextilde">
          1206 2203 rmoveto
          -58 -16 -28 -31 -36 -81 -33 110 -154 hhcurveto
          -139 -113 -106 -163 -31 hvcurveto
          206 hlineto
          62 16 30 35 36 81 32 -110 154 hhcurveto
          139 114 113 148 29 hvcurveto
          -803 -1622 -101 callgsubr
          -331 413 rmoveto
          -317 -275 rlineto
          302 -45 callgsubr
          294 hlineto
          -221 275 rlineto
          endchar
        </CharString>
        <CharString name="Acyrillic">
          609 581 -71 callsubr
        </CharString>
        <CharString name="Adblgrave">
          1298 1596 rmoveto
          -163 326 rlineto
          -291 hlineto
          191 -326 rlineto
          -186 hmoveto
          -164 326 rlineto
          -290 hlineto
          191 -326 rlineto
          23 -1015 -101 callgsubr
          endchar
        </CharString>
        <CharString name="Adieresis">
          685 64 callgsubr
          -76 -1019 -101 callgsubr
          79 497 rmoveto
          -72 callgsubr
          endchar
        </CharString>
        <CharString name="Adieresismacron">
          683 1559 rmoveto
          -105 callgsubr
          -74 -978 -101 callgsubr
          77 456 rmoveto
          -72 callgsubr
          -564 288 rmoveto
          -35 -196 rlineto
          782 hlineto
          35 196 rlineto
          endchar
        </CharString>
        <CharString name="Adotaccent">
          936 64 callsubr
          -327 -990 -71 callsubr
        </CharString>
        <CharString name="Adotbelow">
          579 -125 2 callsubr
          30 706 18 callsubr
        </CharString>
        <CharString name="Adotmacron">
          609 581 -101 callgsubr
          -13 287 rmoveto
          94 -77 76 -93 -93 -77 -76 -94 -94 77 -76 93 -77 callsubr
          vhcurveto
          -478 457 rmoveto
          -35 -196 rlineto
          782 hlineto
          35 196 rlineto
          endchar
        </CharString>
        <CharString name="Agrave">
          1068 1596 rmoveto
          -201 326 101 callsubr
          247 -326 rlineto
          -147 -1015 -71 callsubr
        </CharString>
        <CharString name="Ahookabove">
          890 1555 rmoveto
          169 48 100 99 134 vvcurveto
          120 -99 81 -137 -57 -54 -9 -17 -54 vhcurveto
          -30 -168 rlineto
          11 28 51 8 46 hhcurveto
          66 32 -23 -45 -43 -44 -47 -89 -28 hvcurveto
          -209 -1095 -71 callsubr
        </CharString>
        <CharString name="Ainvertedbreve">
          609 581 -101 callgsubr
          -349 138 rmoveto
          100 22 75 60 100 hhcurveto
          91 61 -64 -96 -1 hvcurveto
          244 hlineto
          199 24 -164 152 -237 hhcurveto
          -239 -184 -139 -212 -39 hvcurveto
          endchar
        </CharString>
        <CharString name="Alphagreek">
          609 581 -71 callsubr
        </CharString>
        <CharString name="Alphatonosgreek">
          626 26 callgsubr
          -308 hlineto
          -139 -394 rlineto
          218 hlineto
          312 -468 rmoveto
          183 537 rlineto
          19 hlineto
          -9 -537 rlineto
          364 -581 rmoveto
          -75 1443 rlineto
          -449 hlineto
          -582 -84 callgsubr
          350 hlineto
          108 317 rlineto
          279 hlineto
          -5 -317 rlineto
          endchar
        </CharString>
        <CharString name="Amacron">
          609 581 -101 callgsubr
          -542 400 2 callgsubr
        </CharString>
        <CharString name="Aogonek">
          821 1118 rmoveto
          19 hlineto
          20 -537 rlineto
          -251 hlineto
          272 -581 rmoveto
          -119 -75 -56 -81 -99 vvcurveto
          -134 122 -90 180 104 callsubr
          -5 -21 -35 -3 -37 hhcurveto
          -76 -51 38 57 95 100 68 186 27 hvcurveto
          -154 1443 rlineto
          -450 38 callgsubr
          379 hlineto
          125 317 rlineto
          365 hlineto
          endchar
        </CharString>
        <CharString name="Aring">
          935 1833 rmoveto
          51 39 -38 -51 -50 -37 -39 -53 -51 -39 38 51 51 39 38 51 hvcurveto
          1 -290 -17 callgsubr
          -327 -962 -71 callsubr
        </CharString>
        <CharString name="Aringacute">
          1256 2230 rmoveto
          -301 hlineto
          -121 -195 rlineto
          273 hlineto
          -169 -184 rmoveto
          51 39 -38 -51 -50 -37 -39 -53 -51 -39 38 51 51 39 38 51 hvcurveto
          1 -290 -17 callgsubr
          -330 -980 -71 callsubr
        </CharString>
        <CharString name="Aringbelow">
          572 -437 rmoveto
          -50 -40 41 49 49 40 41 50 50 40 -41 -49 -49 -40 -41 -50 hvcurveto
          338 vmoveto
          -136 -112 -112 102 callsubr
          112 -112 102 callgsubr
          112 112 102 callgsubr
          -112 112 -136 hvcurveto
          37 680 18 callsubr
        </CharString>
        <CharString name="Atilde">
          1156 1884 rmoveto
          -82 -18 -29 -37 -40 -77 -38 139 -157 hhcurveto
          -148 -112 -125 -195 -36 hvcurveto
          210 hlineto
          84 18 31 41 40 77 37 -139 157 hhcurveto
          149 113 134 180 33 hvcurveto
          -757 -1303 -101 callgsubr
          endchar
        </CharString>
        <CharString name="B">
          -87 callgsubr
          endchar
        </CharString>
        <CharString name="Bdotaccent">
          -87 callgsubr
          528 128 -104 callgsubr
          endchar
        </CharString>
        <CharString name="Bdotbelow">
          -87 callgsubr
          151 -1946 -104 callgsubr
          endchar
        </CharString>
        <CharString name="Becyrillic">
          733 hmoveto
          318 246 225 291 236 -178 166 -254 hvcurveto
          -214 hlineto
          40 230 rlineto
          601 hlineto
          52 295 rlineto
          -968 -98 callsubr
          417 283 rmoveto
          65 370 rlineto
          140 hlineto
          110 66 -58 -97 -124 -90 -91 -124 hvcurveto
          endchar
        </CharString>
        <CharString name="Betagreek">
          -87 callgsubr
          endchar
        </CharString>
        <CharString name="Blinebelow">
          -87 callgsubr
          511 -1883 -97 callsubr
          endchar
        </CharString>
        <CharString name="C">
          -93 callsubr
          endchar
        </CharString>
        <CharString name="Cacute">
          -93 callsubr
          -570 1116 -74 callsubr
          endchar
        </CharString>
        <CharString name="Ccaron">
          -93 callsubr
          -582 1105 -84 callsubr
          endchar
        </CharString>
        <CharString name="Ccedilla">
          -49 callsubr
        </CharString>
        <CharString name="Ccedillaacute">
          1438 3 callgsubr
          -892 -967 rmoveto
          -34 callgsubr
          373 hlineto
          4 39 2 21 17 vvcurveto
          290 -221 202 -319 -346 -218 -187 -347 -61 vhcurveto
          endchar
        </CharString>
        <CharString name="Ccircumflex">
          -93 callsubr
          -164 1465 -75 callgsubr
          endchar
        </CharString>
        <CharString name="Cdotaccent">
          -93 callsubr
          -389 1091 -104 callgsubr
          endchar
        </CharString>
        <CharString name="Checyrillic">
          1446 26 callgsubr
          -367 hlineto
          -37 callsubr
          -96 -546 rlineto
          367 hlineto
          endchar
        </CharString>
        <CharString name="Chigreek">
          -55 callsubr
          endchar
        </CharString>
        <CharString name="D">
          -90 callsubr
          endchar
        </CharString>
        <CharString name="Dcaron">
          -90 callsubr
          2 432 -84 callsubr
          endchar
        </CharString>
        <CharString name="Dcircumflexbelow">
          -90 callsubr
          -336 -1309 rmoveto
          -9 callgsubr
        </CharString>
        <CharString name="Dcommaaccent">
          -90 callsubr
          -220 -1657 -54 callsubr
          endchar
        </CharString>
        <CharString name="Dcroat">
          542 274 rmoveto
          58 326 rlineto
          258 hlineto
          46 252 rlineto
          -260 hlineto
          56 317 rlineto
          46 hlineto
          164 92 -94 -169 -47 -1 -44 -3 -39 hvcurveto
          -2 -38 -4 -34 -6 -28 rrcurveto
          -268 -52 -115 -134 -179 hhcurveto
          -219 1169 rmoveto
          -104 -591 rlineto
          -132 hlineto
          -46 -252 rlineto
          134 hlineto
          -106 -600 rlineto
          479 hlineto
          354 246 235 413 78 hvcurveto
          8 42 6 39 3 40 rrcurveto
          4 41 1 43 51 vvcurveto
          328 -227 211 -352 vhcurveto
          endchar
        </CharString>
        <CharString name="Ddotaccent">
          -90 callsubr
          195 418 -104 callgsubr
          endchar
        </CharString>
        <CharString name="Ddotbelow">
          -90 callsubr
          -186 -1644 -104 callgsubr
          endchar
        </CharString>
        <CharString name="Decyrillic">
          952 hmoveto
          -50 -285 rlineto
          329 hlineto
          102 581 rlineto
          -144 hlineto
          202 1147 rlineto
          -900 hlineto
          -174 -736 -61 -259 -40 -96 -76 -56 rlinecurve
          -73 hlineto
          -102 -581 rlineto
          329 hlineto
          107 callsubr
          417 1149 rmoveto
          213 hlineto
          -151 -853 rlineto
          -306 hlineto
          4 31 49 60 40 101 37 163 rlinecurve
          endchar
        </CharString>
        <CharString name="Deltagreek">
          45 hmoveto
          1175 hlineto
          35 196 -144 1247 rlineto
          -449 hlineto
          -582 -1247 rlineto
          410 99 rmoveto
          3 19 328 814 rlineto
          19 hlineto
          40 -814 -3 -19 rlineto
          endchar
        </CharString>
        <CharString name="Djecyrillic">
          1337 527 rmoveto
          246 -125 134 -208 -90 -97 -27 -47 -69 vhcurveto
          -13 1 56 314 rlineto
          303 hlineto
          52 295 rlineto
          -892 -64 callsubr
          263 77 callsubr
          326 hlineto
          96 547 rlineto
          38 33 60 29 68 hhcurveto
          100 33 -59 -112 -141 -70 -91 -97 -24 -36 7 10 -32 hvcurveto
          -50 -282 rlineto
          -14 31 104 -16 61 hhcurveto
          301 170 254 357 hvcurveto
          endchar
        </CharString>
        <CharString name="Dlinebelow">
          -90 callsubr
          174 -1581 -97 callsubr
          endchar
        </CharString>
        <CharString name="Dzecyrillic">
          -103 callsubr
          endchar
        </CharString>
        <CharString name="Dzhecyrillic">
          410 -285 rmoveto
          345 hlineto
          107 callsubr
          406 -53 callsubr
          -367 77 callsubr
          -422 hlineto
          202 1148 73 callgsubr
          405 hlineto
          endchar
        </CharString>
        <CharString name="E">
          1180 295 -31 callsubr
        </CharString>
        <CharString name="Eacute">
          1180 295 -102 callgsubr
          -374 32 callgsubr
          endchar
        </CharString>
        <CharString name="Ebreve">
          1180 295 -102 callgsubr
          -215 1581 -53 callgsubr
        </CharString>
        <CharString name="Ecaron">
          1180 295 -102 callgsubr
          -386 1585 -84 callsubr
          endchar
        </CharString>
        <CharString name="Ecedilla">
          1330 1148 -17 callsubr
        </CharString>
        <CharString name="Ecedillabreve">
          1128 -8 callgsubr
          -45 -784 -17 callsubr
        </CharString>
        <CharString name="Ecircumflex">
          1180 295 -102 callgsubr
          32 1945 -75 callgsubr
          endchar
        </CharString>
        <CharString name="Ecircumflexacute">
          1180 295 -102 callgsubr
          83 1897 -12 callgsubr
        </CharString>
        <CharString name="Ecircumflexbelow">
          1180 295 -102 callgsubr
          -699 -156 rmoveto
          -9 callgsubr
        </CharString>
        <CharString name="Ecircumflexdotbelow">
          1180 295 -102 callgsubr
          32 1945 -75 callgsubr
          -794 -2086 -104 callgsubr
          endchar
        </CharString>
        <CharString name="Ecircumflexgrave">
          1180 295 -102 callgsubr
          405 1897 -13 callsubr
        </CharString>
        <CharString name="Ecircumflexhookabove">
          1180 295 -102 callgsubr
          -5 1856 -39 callgsubr
        </CharString>
        <CharString name="Ecircumflextilde">
          1180 295 -102 callgsubr
          -8 1856 rmoveto
          -340 hlineto
          -317 -275 rlineto
          302 -45 callgsubr
          294 hlineto
          -479 471 -55 callgsubr
        </CharString>
        <CharString name="Ecyrillic">
          -32 callgsubr
          endchar
        </CharString>
        <CharString name="Edblgrave">
          1134 -27 callgsubr
          332 -1301 -31 callsubr
        </CharString>
        <CharString name="Edieresis">
          1180 295 -102 callgsubr
          -444 64 callgsubr
          506 hmoveto
          -105 callgsubr
          endchar
        </CharString>
        <CharString name="Edotaccent">
          1180 295 -102 callgsubr
          -193 64 callsubr
          endchar
        </CharString>
        <CharString name="Edotbelow">
          1180 295 -102 callgsubr
          -549 -5 callsubr
          endchar
        </CharString>
        <CharString name="Efcyrillic">
          441 745 rmoveto
          37 213 70 109 98 5 -119 -674 rcurveline
          -67 12 -35 61 115 vvcurveto
          23 1 24 3 27 vhcurveto
          3 26 4 29 5 30 rrcurveto
          950 -66 rmoveto
          6 34 5 33 3 31 rrcurveto
          3 32 1 30 28 vvcurveto
          256 -122 140 -245 29 vhcurveto
          33 186 rlineto
          -363 hlineto
          -29 -160 rlineto
          -298 -188 -173 -378 -66 hvcurveto
          -6 -34 -4 -33 -3 -32 rrcurveto
          -3 -32 -2 -30 -29 vvcurveto
          -256 121 -139 244 -29 vhcurveto
          -33 -188 rlineto
          365 hlineto
          28 162 rlineto
          300 186 172 380 67 hvcurveto
          -397 369 rmoveto
          67 -13 35 -64 -116 vvcurveto
          -22 -1 -24 -3 -25 vhcurveto
          -2 -26 -4 -27 -5 -30 -39 -218 -68 -107 -99 -2 rrcurveto
          endchar
        </CharString>
        <CharString name="Egrave">
          866 -33 callsubr
          113 -1301 -31 callsubr
        </CharString>
        <CharString name="Ehookabove">
          1180 295 -102 callgsubr
          -401 1843 26 callsubr
        </CharString>
        <CharString name="Einvertedbreve">
          1180 295 -102 callgsubr
          -151 1932 -47 callsubr
        </CharString>
        <CharString name="Elcyrillic">
          1436 26 callgsubr
          -965 hlineto
          -12 callsubr
          110 36 callsubr
          282 77 callsubr
          357 hlineto
          endchar
        </CharString>
        <CharString name="Emacron">
          1180 295 -102 callgsubr
          167 32 callsubr
          endchar
        </CharString>
        <CharString name="Emacronacute">
          518 5 callgsubr
          346 -1637 -31 callsubr
        </CharString>
        <CharString name="Emacrongrave">
          1180 295 -102 callgsubr
          -32 1932 11 callgsubr
        </CharString>
        <CharString name="Emcyrillic">
          -73 callsubr
          endchar
        </CharString>
        <CharString name="Encyrillic">
          -76 callsubr
          endchar
        </CharString>
        <CharString name="Eogonek">
          775 -20 rmoveto
          -133 -44 -74 -88 -113 34 callsubr
          33 179 rlineto
          -4 -20 -41 -4 -32 hhcurveto
          -76 -51 38 57 99 96 64 190 27 hvcurveto
          52 295 rlineto
          -587 hlineto
          52 295 rlineto
          550 hlineto
          48 270 rlineto
          -550 hlineto
          50 288 rlineto
          587 hlineto
          86 callsubr
          605 hlineto
          endchar
        </CharString>
        <CharString name="Epsilongreek">
          1180 295 -31 callsubr
        </CharString>
        <CharString name="Epsilontonosgreek">
          1258 295 rmoveto
          -373 hlineto
          52 295 rlineto
          336 hlineto
          48 270 rlineto
          -336 hlineto
          50 288 100 callsubr
          52 295 rlineto
          -721 -98 callsubr
          721 hlineto
          -1027 1049 -45 callsubr
          endchar
        </CharString>
        <CharString name="Ercyrillic">
          -70 callgsubr
          endchar
        </CharString>
        <CharString name="Ereversedcyrillic">
          -94 callgsubr
          endchar
        </CharString>
        <CharString name="Escyrillic">
          -93 callsubr
          endchar
        </CharString>
        <CharString name="Etagreek">
          -76 callsubr
          endchar
        </CharString>
        <CharString name="Etatonosgreek">
          1226 44 callgsubr
          -312 hlineto
          -103 -586 rlineto
          -162 hlineto
          103 586 rlineto
          -312 -98 callsubr
          312 hlineto
          106 602 rlineto
          162 hlineto
          -106 -602 rlineto
          -735 1049 -45 callsubr
          endchar
        </CharString>
        <CharString name="Eth">
          510 295 rmoveto
          51 292 rlineto
          216 hlineto
          48 273 rlineto
          -216 hlineto
          52 293 rlineto
          56 hlineto
          150 96 -109 -180 -32 -1 -32 -2 -30 hvcurveto
          -2 -29 -3 -27 -4 -20 rrcurveto
          -273 -48 -88 -126 -196 hhcurveto
          -274 1148 rmoveto
          -103 -583 rlineto
          -112 hlineto
          -48 -273 rlineto
          112 hlineto
          -103 -587 rlineto
          592 hlineto
          352 221 230 446 78 hvcurveto
          6 32 4 32 2 34 rrcurveto
          3 34 1 35 39 vvcurveto
          352 -215 209 -357 vhcurveto
          endchar
        </CharString>
        <CharString name="Etilde">
          1180 295 -102 callgsubr
          -329 1709 -86 callsubr
        </CharString>
        <CharString name="Etildebelow">
          1180 295 -102 callgsubr
          -688 -327 -103 callgsubr
          endchar
        </CharString>
        <CharString name="Euro">
          1477 1435 rmoveto
          20 -55 -119 15 -109 hhcurveto
          -402 -270 -182 -341 -113 hvcurveto
          -137 hlineto
          -30 -169 rlineto
          126 hlineto
          -5 -30 -4 -32 -3 -31 -1 -31 rlinecurve
          -135 hlineto
          -30 -170 rlineto
          176 hlineto
          -330 58 273 -183 445 hhcurveto
          24 28 1 2 26 hvcurveto
          53 300 rlineto
          -2 -13 -38 -1 -48 hhcurveto
          -197 -144 78 135 -65 hvcurveto
          467 hlineto
          30 170 rlineto
          -537 15 hlineto
          25 2 27 4 27 vhcurveto
          2 10 1 10 2 10 rrcurveto
          548 hlineto
          30 169 rlineto
          -513 hlineto
          140 84 149 80 188 hhcurveto
          63 71 -9 -17 66 hvcurveto
          endchar
        </CharString>
        <CharString name="F">
          -5 callgsubr
          endchar
        </CharString>
        <CharString name="Fdotaccent">
          -5 callgsubr
          780 64 callsubr
          endchar
        </CharString>
        <CharString name="G">
          -99 callgsubr
          endchar
        </CharString>
        <CharString name="Gacute">
          -99 callgsubr
          -557 1126 -74 callsubr
          endchar
        </CharString>
        <CharString name="Gammagreek">
          207 hmoveto
          367 hlineto
          35 callsubr
          591 hlineto
          52 295 rlineto
          -958 hlineto
          endchar
        </CharString>
        <CharString name="Gbreve">
          -99 callgsubr
          -398 1111 -53 callgsubr
        </CharString>
        <CharString name="Gcaron">
          -99 callgsubr
          -569 1115 -84 callsubr
          endchar
        </CharString>
        <CharString name="Gcircumflex">
          -99 callgsubr
          -151 1475 -75 callgsubr
          endchar
        </CharString>
        <CharString name="Gcommaaccent">
          -99 callgsubr
          -709 -974 -54 callsubr
          endchar
        </CharString>
        <CharString name="Gdotaccent">
          -99 callgsubr
          -376 1101 -104 callgsubr
          endchar
        </CharString>
        <CharString name="Gecyrillic">
          1476 1443 rmoveto
          -1182 -14 callsubr
          endchar
        </CharString>
        <CharString name="Geupturncyrillic">
          1526 1728 rmoveto
          -325 hlineto
          -50 -285 rlineto
          -857 -14 callsubr
          87 495 rlineto
          endchar
        </CharString>
        <CharString name="Gjecyrillic">
          1407 3 callgsubr
          430 -153 rmoveto
          -1182 -14 callsubr
          endchar
        </CharString>
        <CharString name="Gmacron">
          -99 callgsubr
          -16 1161 -97 callsubr
          endchar
        </CharString>
        <CharString name="H">
          -76 callsubr
          endchar
        </CharString>
        <CharString name="Hardsigncyrillic">
          802 985 rmoveto
          80 458 rlineto
          -623 hlineto
          -51 -294 rlineto
          255 hlineto
          -203 -1149 rlineto
          533 hlineto
          320 231 235 325 254 -161 171 -240 hvcurveto
          -201 -279 rmoveto
          84 hlineto
          93 55 -63 -106 -144 -96 -110 -126 hvcurveto
          -84 hlineto
          endchar
        </CharString>
        <CharString name="Hbar">
          638 869 rmoveto
          33 187 83 callsubr
          -33 -187 rlineto
          -327 -287 rmoveto
          264 hlineto
          -103 -582 rlineto
          367 hlineto
          185 1047 rlineto
          95 hlineto
          40 231 rlineto
          -95 hlineto
          29 165 28 callsubr
          -29 -165 rlineto
          -264 hlineto
          29 165 28 callsubr
          -29 -165 rlineto
          -89 hlineto
          -40 -231 rlineto
          89 hlineto
          -185 -1047 rlineto
          367 hlineto
          endchar
        </CharString>
        <CharString name="Hbrevebelow">
          -76 callsubr
          -235 -465 -93 callgsubr
          endchar
        </CharString>
        <CharString name="Hcaron">
          -76 callsubr
          -93 1585 -84 callsubr
          endchar
        </CharString>
        <CharString name="Hcedilla">
          449 hmoveto
          103 582 rlineto
          368 hlineto
          -103 -582 rlineto
          358 -53 callsubr
          -358 hlineto
          -99 -566 rlineto
          -368 hlineto
          99 566 rlineto
          -358 -98 callsubr
          165 hlineto
          -64 -102 -80 callgsubr
          endchar
        </CharString>
        <CharString name="Hcircumflex">
          -76 callsubr
          325 1945 -75 callgsubr
          endchar
        </CharString>
        <CharString name="Hdieresis">
          -76 callsubr
          -151 64 callgsubr
          506 hmoveto
          -105 callgsubr
          endchar
        </CharString>
        <CharString name="Hdotaccent">
          -76 callsubr
          100 64 callsubr
          endchar
        </CharString>
        <CharString name="Hdotbelow">
          -76 callsubr
          -238 -5 callsubr
          endchar
        </CharString>
        <CharString name="I">
          1120 hmoveto
          -10 callgsubr
        </CharString>
        <CharString name="IAcyrillic">
          886 503 -66 callsubr
        </CharString>
        <CharString name="IJ">
          854 -39 -14 callgsubr
        </CharString>
        <CharString name="IJacute">
          408 1595 -74 callsubr
          301 -326 -74 callsubr
          -485 -1960 -14 callgsubr
        </CharString>
        <CharString name="IUcyrillic">
          -92 callgsubr
          endchar
        </CharString>
        <CharString name="Iacute">
          1120 hmoveto
          -99 callsubr
          610 32 callgsubr
          endchar
        </CharString>
        <CharString name="Ibreve">
          1120 hmoveto
          -99 callsubr
          769 1581 -53 callgsubr
        </CharString>
        <CharString name="Icaron">
          1120 hmoveto
          -99 callsubr
          598 1585 -84 callsubr
          endchar
        </CharString>
        <CharString name="Icircumflex">
          1120 hmoveto
          -99 callsubr
          1016 1945 -75 callgsubr
          endchar
        </CharString>
        <CharString name="Icyrillic">
          1120 hmoveto
          -10 callgsubr
        </CharString>
        <CharString name="Idblgrave">
          1136 -27 callgsubr
          270 -1596 rmoveto
          -10 callgsubr
        </CharString>
        <CharString name="Idieresis">
          1120 hmoveto
          -99 callsubr
          540 64 callgsubr
          506 hmoveto
          -105 callgsubr
          endchar
        </CharString>
        <CharString name="Idieresisacute">
          1120 hmoveto
          -99 callsubr
          647 1962 rmoveto
          274 hlineto
          229 250 rlineto
          -327 hlineto
          -292 -652 rmoveto
          -105 callgsubr
          506 hmoveto
          -105 callgsubr
          endchar
        </CharString>
        <CharString name="Idotaccent">
          1120 hmoveto
          -99 callsubr
          791 64 callsubr
          endchar
        </CharString>
        <CharString name="Idotbelow">
          1120 hmoveto
          -99 callsubr
          433 -5 callsubr
          endchar
        </CharString>
        <CharString name="Iecyrillic">
          1180 295 -31 callsubr
        </CharString>
        <CharString name="Igrave">
          868 -33 callsubr
          51 -1596 rmoveto
          -10 callgsubr
        </CharString>
        <CharString name="Ihookabove">
          1120 hmoveto
          -99 callsubr
          583 1843 26 callsubr
        </CharString>
        <CharString name="Iicyrillic">
          358 1443 -59 callsubr
        </CharString>
        <CharString name="Iinvertedbreve">
          1120 hmoveto
          -99 callsubr
          833 1932 -47 callsubr
        </CharString>
        <CharString name="Iishortcyrillic">
          1134 1958 rmoveto
          -98 callgsubr
          -63 callsubr
          -1027 -515 -59 callsubr
        </CharString>
        <CharString name="Imacron">
          1120 hmoveto
          -99 callsubr
          1151 32 callsubr
          endchar
        </CharString>
        <CharString name="Iocyrillic">
          1180 295 -102 callgsubr
          -444 64 callgsubr
          506 hmoveto
          -105 callgsubr
          endchar
        </CharString>
        <CharString name="Iogonek">
          787 hmoveto
          -4 -20 rlineto
          -127 -41 -80 -91 -103 vvcurveto
          -134 121 -90 181 104 callsubr
          -6 -29 -28 -2 -37 hhcurveto
          -71 -55 42 53 98 96 67 174 25 hvcurveto
          -10 callgsubr
        </CharString>
        <CharString name="Iotadieresisgreek">
          1120 hmoveto
          -99 callsubr
          540 64 callgsubr
          506 hmoveto
          -105 callgsubr
          endchar
        </CharString>
        <CharString name="Iotagreek">
          1120 hmoveto
          -10 callgsubr
        </CharString>
        <CharString name="Iotatonosgreek">
          1184 hmoveto
          52 295 rlineto
          -207 hlineto
          150 853 rlineto
          207 hlineto
          52 295 rlineto
          -717 -64 callsubr
          204 -7 callsubr
          -204 -64 callsubr
          -238 1049 -45 callsubr
          endchar
        </CharString>
        <CharString name="Iotatonosgreek.1">
          1007 44 callgsubr
          -366 -98 callsubr
          -362 1049 -45 callsubr
          endchar
        </CharString>
        <CharString name="Itilde">
          1120 hmoveto
          -99 callsubr
          655 1709 -86 callsubr
        </CharString>
        <CharString name="Itildebelow">
          1120 hmoveto
          -99 callsubr
          294 -327 -103 callgsubr
          endchar
        </CharString>
        <CharString name="J">
          -35 callgsubr
          endchar
        </CharString>
        <CharString name="Jcircumflex">
          -35 callgsubr
          520 1974 -75 callgsubr
          endchar
        </CharString>
        <CharString name="Jecyrillic">
          -35 callgsubr
          endchar
        </CharString>
        <CharString name="K">
          -74 callgsubr
          endchar
        </CharString>
        <CharString name="Kacute">
          -74 callgsubr
          -488 32 callgsubr
          endchar
        </CharString>
        <CharString name="Kacyrillic">
          712 1443 20 callgsubr
        </CharString>
        <CharString name="Kappagreek">
          -74 callgsubr
          endchar
        </CharString>
        <CharString name="Kcaron">
          -74 callgsubr
          -500 1585 -84 callsubr
          endchar
        </CharString>
        <CharString name="Kcommaaccent">
          -74 callgsubr
          -703 -504 -54 callsubr
          endchar
        </CharString>
        <CharString name="Kdotbelow">
          -74 callgsubr
          -669 -5 callsubr
          endchar
        </CharString>
        <CharString name="Kjecyrillic">
          700 32 callgsubr
          -303 -479 20 callgsubr
        </CharString>
        <CharString name="Klinebelow">
          -74 callgsubr
          -309 -428 -97 callsubr
          endchar
        </CharString>
        <CharString name="L">
          -51 callsubr
          endchar
        </CharString>
        <CharString name="Lacute">
          -51 callsubr
          -651 32 callgsubr
          endchar
        </CharString>
        <CharString name="Lambdagreek">
          10 hmoveto
          380 hlineto
          428 1098 rlineto
          19 hlineto
          34 -1098 rlineto
          385 hlineto
          -145 1443 rlineto
          -448 hlineto
          endchar
        </CharString>
        <CharString name="Lcaron">
          1037 26 callgsubr
          -90 -511 rlineto
          236 hlineto
          140 511 rlineto
          -109 -1140 rmoveto
          -593 hlineto
          201 1140 rlineto
          -361 8 callgsubr
          endchar
        </CharString>
        <CharString name="Lcircumflexbelow">
          -51 callsubr
          -686 -156 rmoveto
          -9 callgsubr
        </CharString>
        <CharString name="Lcommaaccent">
          -51 callsubr
          -570 -504 -54 callsubr
          endchar
        </CharString>
        <CharString name="Ldot">
          -51 callsubr
          -16 964 -104 callgsubr
          endchar
        </CharString>
        <CharString name="Ldotbelow">
          -51 callsubr
          -536 -5 callsubr
          endchar
        </CharString>
        <CharString name="Ldotbelowmacron">
          -51 callsubr
          -536 -5 callsubr
          427 2122 -97 callsubr
          endchar
        </CharString>
        <CharString name="Ljecyrillic">
          947 707 rmoveto
          28 hlineto
          67 33 -49 -98 -165 -69 -112 -101 hvcurveto
          -33 hlineto
          -232 907 rmoveto
          122 hlineto
          -209 -1190 rlineto
          364 hlineto
          269 179 266 358 227 -108 135 -212 hvcurveto
          -26 hlineto
          80 457 rlineto
          -695 hlineto
          -173 -871 rlineto
          -217 -43 -30 -69 -72 hhcurveto
          -15 -15 3 3 -10 hvcurveto
          -51 -292 rlineto
          -6 18 53 -8 48 hhcurveto
          244 76 158 422 83 hvcurveto
          endchar
        </CharString>
        <CharString name="Llinebelow">
          -51 callsubr
          -176 -428 -97 callsubr
          endchar
        </CharString>
        <CharString name="Lslash">
          686 674 rmoveto
          513 247 50 280 -513 -247 86 489 rlineto
          -361 hlineto
          -120 -679 -175 -85 -50 -280 176 85 -85 -484 rlineto
          954 hlineto
          53 303 rlineto
          -593 hlineto
          endchar
        </CharString>
        <CharString name="M">
          -73 callsubr
          endchar
        </CharString>
        <CharString name="Macute">
          -73 callsubr
          381 32 callgsubr
          endchar
        </CharString>
        <CharString name="Mdotaccent">
          -73 callsubr
          562 64 callsubr
          endchar
        </CharString>
        <CharString name="Mdotbelow">
          -73 callsubr
          202 -5 callsubr
          endchar
        </CharString>
        <CharString name="Mugreek">
          -73 callsubr
          endchar
        </CharString>
        <CharString name="N">
          419 hmoveto
          -83 callgsubr
          endchar
        </CharString>
        <CharString name="Nacute">
          419 hmoveto
          -83 callgsubr
          650 32 callgsubr
          endchar
        </CharString>
        <CharString name="Ncaron">
          419 hmoveto
          -83 callgsubr
          639 1585 -84 callsubr
          endchar
        </CharString>
        <CharString name="Ncircumflexbelow">
          419 hmoveto
          -83 callgsubr
          314 -156 rmoveto
          -9 callgsubr
        </CharString>
        <CharString name="Ncommaaccent">
          419 hmoveto
          -83 callgsubr
          430 -504 -54 callsubr
          endchar
        </CharString>
        <CharString name="Ndotaccent">
          419 hmoveto
          -83 callgsubr
          832 64 callsubr
          endchar
        </CharString>
        <CharString name="Ndotbelow">
          419 hmoveto
          -83 callgsubr
          464 -5 callsubr
          endchar
        </CharString>
        <CharString name="Ngrave">
          871 -33 callsubr
          -653 -1596 rmoveto
          -83 callgsubr
          endchar
        </CharString>
        <CharString name="Njecyrillic">
          311 hmoveto
          108 611 rlineto
          222 hlineto
          -108 -611 rlineto
          350 hlineto
          279 173 189 329 256 -129 118 -204 hvcurveto
          -35 hlineto
          97 551 rlineto
          -277 hlineto
          -97 -551 rlineto
          -222 hlineto
          97 551 rlineto
          -277 -98 callsubr
          872 621 rmoveto
          51 hlineto
          68 38 -48 -85 -136 -58 -101 -106 hvcurveto
          -58 hlineto
          endchar
        </CharString>
        <CharString name="Nlinebelow">
          419 hmoveto
          -83 callgsubr
          824 -428 -97 callsubr
          endchar
        </CharString>
        <CharString name="Ntilde">
          419 hmoveto
          -83 callgsubr
          696 1709 -86 callsubr
        </CharString>
        <CharString name="Nugreek">
          419 hmoveto
          -83 callgsubr
          endchar
        </CharString>
        <CharString name="NumberSignCyrillic">
          21 callgsubr
          1280 843 rmoveto
          22 124 rlineto
          -336 hlineto
          -22 -124 rlineto
          246 269 rmoveto
          95 76 77 95 95 -76 77 -95 -95 -76 -77 -95 -95 76 -77 95 hvcurveto
          endchar
        </CharString>
        <CharString name="O">
          -106 callgsubr
          endchar
        </CharString>
        <CharString name="OE">
          509 835 rmoveto
          166 29 60 84 90 hhcurveto
          75 41 -48 -89 -42 -5 -51 -12 -66 hvcurveto
          -33 -187 rlineto
          -166 -29 -56 -78 -91 hhcurveto
          -74 -42 51 91 48 5 52 10 54 hvcurveto
          217 -449 rmoveto
          15 hlineto
          -36 -205 rlineto
          573 hlineto
          57 323 rlineto
          -292 hlineto
          44 249 rlineto
          255 hlineto
          53 300 91 callgsubr
          43 247 rlineto
          292 hlineto
          57 324 rlineto
          -573 hlineto
          -37 -215 rlineto
          -15 hlineto
          160 -24 -87 89 -150 hhcurveto
          -226 -128 -175 -406 -72 hvcurveto
          -44 -248 rlineto
          -20 -117 -10 -107 -102 vvcurveto
          -221 111 -135 181 142 66 61 178 80 vhcurveto
          endchar
        </CharString>
        <CharString name="Oacute">
          -106 callgsubr
          57 1321 -74 callsubr
          endchar
        </CharString>
        <CharString name="Obreve">
          -106 callgsubr
          216 1306 -53 callgsubr
        </CharString>
        <CharString name="Ocaron">
          -106 callgsubr
          45 1310 -84 callsubr
          endchar
        </CharString>
        <CharString name="Ocircumflex">
          -106 callgsubr
          463 1670 -75 callgsubr
          endchar
        </CharString>
        <CharString name="Ocircumflexacute">
          -106 callgsubr
          514 1622 -12 callgsubr
        </CharString>
        <CharString name="Ocircumflexdotbelow">
          -106 callgsubr
          463 1670 -75 callgsubr
          -795 -2086 -104 callgsubr
          endchar
        </CharString>
        <CharString name="Ocircumflexgrave">
          -106 callgsubr
          836 1622 -13 callsubr
        </CharString>
        <CharString name="Ocircumflexhookabove">
          -106 callgsubr
          426 1581 -39 callgsubr
        </CharString>
        <CharString name="Ocircumflextilde">
          -106 callgsubr
          423 1581 rmoveto
          -340 hlineto
          -317 -275 rlineto
          302 -45 callgsubr
          294 hlineto
          -479 471 -55 callgsubr
        </CharString>
        <CharString name="Ocyrillic">
          -106 callgsubr
          endchar
        </CharString>
        <CharString name="Odblgrave">
          1135 -27 callgsubr
          -266 -756 -81 callsubr
        </CharString>
        <CharString name="Odieresis">
          -106 callgsubr
          -13 1325 rmoveto
          -105 callgsubr
          506 hmoveto
          -105 callgsubr
          endchar
        </CharString>
        <CharString name="Odieresismacron">
          -106 callgsubr
          491 1624 rmoveto
          -72 callgsubr
          218 288 rmoveto
          97 callgsubr
          782 hlineto
          -689 -92 rmoveto
          -72 callgsubr
          endchar
        </CharString>
        <CharString name="Odotaccent">
          -106 callgsubr
          238 1296 -104 callgsubr
          endchar
        </CharString>
        <CharString name="Odotaccentmacron">
          929 1900 rmoveto
          -72 callgsubr
          -343 91 -11 callgsubr
          -38 -1347 -81 callsubr
        </CharString>
        <CharString name="Odotbelow">
          -106 callgsubr
          -119 -766 -104 callgsubr
          endchar
        </CharString>
        <CharString name="Ograve">
          867 -33 callsubr
          -485 -756 -81 callsubr
        </CharString>
        <CharString name="Ohookabove">
          -106 callgsubr
          30 1568 26 callsubr
        </CharString>
        <CharString name="Ohorn">
          684 -29 -91 callgsubr
          endchar
        </CharString>
        <CharString name="Ohornacute">
          684 -29 -91 callgsubr
          46 1321 -74 callsubr
          endchar
        </CharString>
        <CharString name="Ohorndotbelow">
          684 -29 -91 callgsubr
          -119 -766 -104 callgsubr
          endchar
        </CharString>
        <CharString name="Ohorngrave">
          583 840 -6 callsubr
          60 4 43 11 64 hvcurveto
          794 133 rmoveto
          11 62 3 54 104 vvcurveto
          58 -16 64 -34 75 vhcurveto
          3 18 rlineto
          59 hlineto
          142 93 80 144 25 hvcurveto
          44 251 rlineto
          -269 hlineto
          66 callgsubr
          -58 -10 -42 -30 -71 -180 -6 56 -224 -2 callgsubr
          -57 -3 -51 -112 vvcurveto
          -279 220 -205 299 338 212 200 384 69 vhcurveto
          -420 1367 85 callgsubr
        </CharString>
        <CharString name="Ohornhookabove">
          21 callsubr
          -80 -2040 -91 callgsubr
          endchar
        </CharString>
        <CharString name="Ohorntilde">
          684 -29 -91 callgsubr
          108 1434 -86 callsubr
        </CharString>
        <CharString name="Ohungarumlaut">
          -106 callgsubr
          314 1321 11 callsubr
        </CharString>
        <CharString name="Oinvertedbreve">
          -106 callgsubr
          280 1657 -47 callsubr
        </CharString>
        <CharString name="Omacron">
          -106 callgsubr
          598 1356 -97 callsubr
          endchar
        </CharString>
        <CharString name="Omacronacute">
          519 5 callgsubr
          -252 -1092 -81 callsubr
        </CharString>
        <CharString name="Omacrongrave">
          -106 callgsubr
          399 1657 11 callgsubr
        </CharString>
        <CharString name="Omegagreek">
          834 1472 rmoveto
          -312 -198 -167 -230 -94 hvcurveto
          -26 -63 -18 -68 -10 -70 rrcurveto
          -7 -49 -4 -51 -51 vvcurveto
          -185 62 -142 116 -94 vhcurveto
          -4 -19 rlineto
          -246 hlineto
          -50 -283 rlineto
          534 hlineto
          65 360 rlineto
          -99 79 -42 108 119 vvcurveto
          29 1 27 2 27 vhcurveto
          7 87 18 76 28 63 rrcurveto
          122 54 90 71 115 hhcurveto
          152 73 -96 -198 -40 -3 -38 -6 -37 hvcurveto
          -14 -93 -32 -82 -48 -68 -47 -68 -63 -54 -76 -35 -63 -359 rcurveline
          554 hlineto
          50 283 rlineto
          -266 hlineto
          4 19 174 94 114 141 48 190 rlinecurve
          10 37 7 39 4 41 rrcurveto
          4 35 2 37 38 vvcurveto
          338 -196 180 -364 vhcurveto
          endchar
        </CharString>
        <CharString name="Omegatonosgreek">
          1005 1468 rmoveto
          -282 -181 -205 -400 -71 hvcurveto
          -9 -52 -7 -48 -4 -46 rrcurveto
          -5 -45 -2 -42 -39 vvcurveto
          -143 29 -102 64 -82 vhcurveto
          -3 -19 rlineto
          -159 hlineto
          -43 -245 rlineto
          397 hlineto
          76 429 rlineto
          -48 51 -16 43 76 vvcurveto
          28 2 32 5 41 vhcurveto
          5 40 8 49 10 59 rrcurveto
          228 40 61 94 108 hhcurveto
          94 43 -54 -121 -23 -1 -26 -3 -28 hvcurveto
          -3 -28 -5 -31 -6 -34 -47 -267 -30 -70 -102 -67 -76 -421 rcurveline
          398 hlineto
          43 245 rlineto
          -157 hlineto
          3 19 148 117 70 141 48 277 rlinecurve
          7 41 5 38 4 37 rrcurveto
          3 37 2 35 33 vvcurveto
          295 -141 153 -272 vhcurveto
          -826 -419 -45 callsubr
          endchar
        </CharString>
        <CharString name="Omicrongreek">
          -106 callgsubr
          endchar
        </CharString>
        <CharString name="Omicrontonosgreek">
          728 418 rmoveto
          43 6 55 12 72 vhcurveto
          107 callsubr
          207 37 50 88 81 hhcurveto
          66 28 -42 -101 -43 -6 -55 -12 -72 hvcurveto
          -50 -285 rlineto
          -207 -37 -50 -88 -81 hhcurveto
          -67 -27 41 102 hvcurveto
          567 167 rmoveto
          38 213 rlineto
          21 123 9 73 62 vvcurveto
          279 -125 138 -253 -266 -154 -192 -423 -74 vhcurveto
          -37 -213 rlineto
          -21 -123 -8 -74 -61 vvcurveto
          -280 123 -137 253 266 152 190 425 76 vhcurveto
          -1096 464 -45 callsubr
          endchar
        </CharString>
        <CharString name="Oogonek">
          -44 callsubr
          endchar
        </CharString>
        <CharString name="Oogonekmacron">
          -44 callsubr
          341 2077 -97 callsubr
          endchar
        </CharString>
        <CharString name="Oslash">
          936 603 -46 callsubr
        </CharString>
        <CharString name="Oslashacute">
          1411 3 callgsubr
          -114 -993 -46 callsubr
        </CharString>
        <CharString name="Otilde">
          -106 callgsubr
          102 1434 -86 callsubr
        </CharString>
        <CharString name="Otildeacute">
          -106 callgsubr
          120 1687 rmoveto
          284 hlineto
          158 250 rlineto
          -315 hlineto
          -145 -514 -56 callsubr
        </CharString>
        <CharString name="Otildedieresis">
          -106 callgsubr
          36 1639 rmoveto
          72 callgsubr
          506 hmoveto
          72 callgsubr
          -445 -250 -55 callgsubr
        </CharString>
        <CharString name="Otildemacron">
          -106 callgsubr
          673 1733 rmoveto
          35 196 rlineto
          97 callgsubr
          211 -310 -56 callsubr
        </CharString>
        <CharString name="P">
          -70 callgsubr
          endchar
        </CharString>
        <CharString name="Pacute">
          -70 callgsubr
          99 894 -74 callsubr
          endchar
        </CharString>
        <CharString name="Pdotaccent">
          -70 callgsubr
          280 869 -104 callgsubr
          endchar
        </CharString>
        <CharString name="Pecyrillic">
          1465 26 callgsubr
          -1156 -98 callsubr
          366 hlineto
          35 callsubr
          424 77 callsubr
          366 hlineto
          endchar
        </CharString>
        <CharString name="Phigreek">
          820 56 rmoveto
          170 2 149 89 104 150 rrcurveto
          102 148 59 208 239 vvcurveto
          279 -124 168 -228 33 vhcurveto
          103 callsubr
          -308 hlineto
          -32 -184 -172 -6 -147 -87 -103 -148 rlinecurve
          -101 -145 -60 -205 -246 vvcurveto
          -279 124 -168 229 -32 vhcurveto
          -33 -186 rlineto
          306 hlineto
          -351 644 rmoveto
          161 34 160 54 117 vhcurveto
          50 106 67 72 75 5 -148 -840 rcurveline
          -70 13 -62 56 150 vvcurveto
          693 400 rmoveto
          -161 -34 -160 -54 -117 vhcurveto
          -50 -106 -68 -72 -75 -5 149 840 rcurveline
          70 -13 62 -56 -150 vvcurveto
          endchar
        </CharString>
        <CharString name="Pigreek">
          91 hmoveto
          358 hlineto
          35 callsubr
          368 77 callsubr
          358 -53 callsubr
          -1084 hlineto
          endchar
        </CharString>
        <CharString name="Psigreek">
          461 hmoveto
          343 hlineto
          48 258 318 17 99 106 71 402 rlinecurve
          116 660 rlineto
          -294 hlineto
          -110 -626 -45 -254 -19 -48 -118 -7 rlinecurve
          164 935 90 callgsubr
          -161 -915 rlineto
          -72 16 -22 31 80 vvcurveto
          46 8 64 16 90 vhcurveto
          103 588 rlineto
          -293 hlineto
          -102 -580 rlineto
          -19 -108 -8 -78 -63 vvcurveto
          -205 95 -89 225 -38 vhcurveto
          endchar
        </CharString>
        <CharString name="Q">
          697 257 rmoveto
          -105 -65 75 122 62 4 42 12 66 hvcurveto
          37 209 rlineto
          240 42 69 95 132 hhcurveto
          105 65 -75 -121 -64 -4 -39 -12 -68 hvcurveto
          -37 -209 -9 -50 -10 -43 -11 -38 rlinecurve
          -285 hlineto
          77 -204 rlineto
          -523 418 rmoveto
          -11 -56 -3 -50 -114 vvcurveto
          -279 220 -205 299 43 41 3 7 39 vhcurveto
          50 -134 rlineto
          332 hlineto
          -100 266 107 98 73 148 34 196 rlinecurve
          28 callgsubr
          11 63 4 55 102 vvcurveto
          279 -218 205 -299 -338 -214 -201 -383 -69 vhcurveto
          endchar
        </CharString>
        <CharString name="R">
          480 hmoveto
          -96 callsubr
        </CharString>
        <CharString name="Racute">
          676 32 callgsubr
          -511 -1922 rmoveto
          -96 callsubr
        </CharString>
        <CharString name="Rcaron">
          664 1585 -84 callsubr
          29 -1935 rmoveto
          -96 callsubr
        </CharString>
        <CharString name="Rcommaaccent">
          553 -503 -54 callsubr
          233 503 rmoveto
          -96 callsubr
        </CharString>
        <CharString name="Rdblgrave">
          686 1166 rmoveto
          136 hlineto
          112 72 -72 -102 -12 -1 -18 -3 -12 hvcurveto
          -117 -29 -77 -69 -144 hhcurveto
          -137 hlineto
          -135 -764 rmoveto
          89 505 rlineto
          133 hlineto
          154 -505 rlineto
          388 hlineto
          -181 547 176 60 106 122 32 183 rlinecurve
          6 35 3 33 32 vvcurveto
          262 -220 169 -285 vhcurveto
          -514 -98 callsubr
          493 1922 rmoveto
          -290 hlineto
          191 -326 rlineto
          263 hlineto
          286 326 rmoveto
          -291 hlineto
          191 -326 rlineto
          263 hlineto
          endchar
        </CharString>
        <CharString name="Rdotaccent">
          857 64 callsubr
          -377 -1571 rmoveto
          -96 callsubr
        </CharString>
        <CharString name="Rdotbelow">
          587 -490 -104 callgsubr
          -107 490 rmoveto
          -96 callsubr
        </CharString>
        <CharString name="Rdotbelowmacron">
          1217 32 callsubr
          134 -2121 -104 callgsubr
          -107 490 rmoveto
          -96 callsubr
        </CharString>
        <CharString name="Rhogreek">
          -70 callgsubr
          endchar
        </CharString>
        <CharString name="Rinvertedbreve">
          684 1581 rmoveto
          100 22 75 60 100 hhcurveto
          91 61 -64 -96 -1 hvcurveto
          244 hlineto
          199 24 -164 152 -237 hhcurveto
          -239 -184 -139 -212 -39 hvcurveto
          43 -1581 rmoveto
          -96 callsubr
        </CharString>
        <CharString name="Rlinebelow">
          947 -427 -97 callsubr
          297 427 rmoveto
          -96 callsubr
        </CharString>
        <CharString name="S">
          -103 callsubr
          endchar
        </CharString>
        <CharString name="Sacute">
          -103 callsubr
          255 1154 -74 callsubr
          endchar
        </CharString>
        <CharString name="Sacutedotaccent">
          -103 callsubr
          440 1154 -74 callsubr
          -525 -335 -104 callgsubr
          endchar
        </CharString>
        <CharString name="Scaron">
          -103 callsubr
          243 1143 -84 callsubr
          endchar
        </CharString>
        <CharString name="Scarondotaccent">
          -103 callsubr
          495 1492 14 callsubr
        </CharString>
        <CharString name="Scedilla">
          1367 1004 rmoveto
          2 10 0 6 22 vvcurveto
          254 -1 -224 176 -322 hhcurveto
          -329 -226 -195 -284 -184 115 -135 214 -66 hvcurveto
          150 -46 rlineto
          124 -38 55 -50 -74 vvcurveto
          -85 -85 -61 -120 -144 -96 68 103 14 0 0 1 3 vhcurveto
          -345 hlineto
          -1 -12 -1 -16 -13 vvcurveto
          -205 166 -159 249 -49 vhcurveto
          -56 -90 -80 callgsubr
          47 73 rlineto
          345 4 219 191 300 vvcurveto
          176 -120 130 -228 70 vhcurveto
          -144 44 rlineto
          -110 34 -53 51 71 vvcurveto
          91 74 57 117 107 84 -72 -91 -16 0 -2 -1 -5 vhcurveto
          endchar
        </CharString>
        <CharString name="Scircumflex">
          -103 callsubr
          661 1503 -75 callgsubr
          endchar
        </CharString>
        <CharString name="Scommaaccent">
          -103 callsubr
          56 -946 -54 callsubr
          endchar
        </CharString>
        <CharString name="Sdotaccent">
          -103 callsubr
          436 1129 -104 callgsubr
          endchar
        </CharString>
        <CharString name="Sdotbelow">
          -103 callsubr
          90 -933 -104 callgsubr
          endchar
        </CharString>
        <CharString name="Sdotbelowdotaccent">
          -103 callsubr
          90 -933 -104 callgsubr
          346 2062 -104 callgsubr
          endchar
        </CharString>
        <CharString name="Shacyrillic">
          1196 44 callgsubr
          -248 hlineto
          -206 -1168 rlineto
          -191 105 callsubr
          -206 -1168 rlineto
          -191 105 callsubr
          -254 -1443 rlineto
          endchar
        </CharString>
        <CharString name="Shchacyrillic">
          1018 -285 rmoveto
          258 hlineto
          98 560 rlineto
          -165 105 callsubr
          -207 -1178 rlineto
          -191 hlineto
          207 1178 rlineto
          -248 hlineto
          -207 -1178 rlineto
          -191 hlineto
          207 1178 rlineto
          -248 -98 callsubr
          1033 hlineto
          endchar
        </CharString>
        <CharString name="Sigmagreek">
          130 hmoveto
          1018 hlineto
          52 295 rlineto
          -548 hlineto
          3 19 326 375 7 38 -183 402 3 19 rlineto
          522 hlineto
          52 295 rlineto
          -976 hlineto
          -40 -230 229 -488 -424 -492 rlineto
          endchar
        </CharString>
        <CharString name="Softsigncyrillic">
          614 707 rmoveto
          134 hlineto
          114 66 -62 -107 -161 -94 -94 -161 hvcurveto
          -134 hlineto
          182 -283 rmoveto
          348 236 227 333 254 -175 171 -259 hvcurveto
          -208 hlineto
          80 458 73 callgsubr
          endchar
        </CharString>
        <CharString name="T">
          816 hmoveto
          -63 callgsubr
          endchar
        </CharString>
        <CharString name="Taugreek">
          816 hmoveto
          -63 callgsubr
          endchar
        </CharString>
        <CharString name="Tbar">
          29 callgsubr
          -61 -344 rlineto
          -271 hlineto
          -44 -247 rlineto
          272 hlineto
          -98 -557 rlineto
          366 hlineto
          98 557 rlineto
          272 hlineto
          44 247 rlineto
          -273 hlineto
          61 344 rlineto
          endchar
        </CharString>
        <CharString name="Tcaron">
          816 hmoveto
          -63 callgsubr
          294 1585 -84 callsubr
          endchar
        </CharString>
        <CharString name="Tcedilla">
          623 hmoveto
          -64 -102 -80 callgsubr
          65 102 -63 callgsubr
          endchar
        </CharString>
        <CharString name="Tcircumflexbelow">
          816 hmoveto
          -63 callgsubr
          -26 -156 rmoveto
          -9 callgsubr
        </CharString>
        <CharString name="Tcommaaccent">
          816 hmoveto
          -63 callgsubr
          90 -504 -54 callsubr
          endchar
        </CharString>
        <CharString name="Tdotaccent">
          816 hmoveto
          -63 callgsubr
          487 64 callsubr
          endchar
        </CharString>
        <CharString name="Tdotbelow">
          816 hmoveto
          -63 callgsubr
          124 -5 callsubr
          endchar
        </CharString>
        <CharString name="Tecyrillic">
          816 hmoveto
          -63 callgsubr
          endchar
        </CharString>
        <CharString name="Thetagreek">
          590 572 rmoveto
          286 hlineto
          51 288 rlineto
          -286 hlineto
          663 -305 rmoveto
          28 callgsubr
          13 73 1 32 115 24 callgsubr
          -52 -3 -50 -118 vvcurveto
          -279 220 -205 299 339 214 202 382 67 vhcurveto
          -612 -280 rmoveto
          -137 -56 76 117 61 5 43 11 63 hvcurveto
          36 205 rlineto
          230 40 62 98 175 hhcurveto
          137 56 -76 -116 -60 -4 -41 -12 -67 hvcurveto
          -36 -205 rlineto
          -229 -40 -72 -99 -165 hhcurveto
          endchar
        </CharString>
        <CharString name="Thorn">
          409 74 callgsubr
          393 hlineto
          44 247 rlineto
          153 hlineto
          391 226 200 347 264 -199 169 -311 hvcurveto
          -88 hlineto
          38 216 rlineto
          -91 -518 rmoveto
          95 hlineto
          109 77 -62 -89 -139 -86 -82 -146 hvcurveto
          -114 hlineto
          endchar
        </CharString>
        <CharString name="Tlinebelow">
          816 hmoveto
          -63 callgsubr
          484 -428 -97 callsubr
          endchar
        </CharString>
        <CharString name="Tsecyrillic">
          1318 295 rmoveto
          -130 hlineto
          35 callsubr
          -367 77 callsubr
          -319 hlineto
          202 1148 73 callgsubr
          855 hlineto
          -50 -285 rlineto
          328 hlineto
          endchar
        </CharString>
        <CharString name="Tshecyrillic">
          577 hmoveto
          97 551 rlineto
          32 34 55 26 58 hhcurveto
          77 40 -46 -89 -30 -3 -33 -7 -36 hvcurveto
          -66 -375 rlineto
          346 hlineto
          76 432 rlineto
          11 58 5 55 50 vvcurveto
          205 -108 108 -204 -91 -90 -30 -56 -71 vhcurveto
          -15 hlineto
          58 326 rlineto
          297 hlineto
          52 295 rlineto
          -874 -64 callsubr
          230 77 callsubr
          endchar
        </CharString>
        <CharString name="U">
          165 517 -32 callsubr
        </CharString>
        <CharString name="Uacute">
          165 517 -104 callsubr
          427 153 -74 callsubr
          endchar
        </CharString>
        <CharString name="Ubreve">
          165 517 -104 callsubr
          586 138 -53 callgsubr
        </CharString>
        <CharString name="Ucaron">
          165 517 -104 callsubr
          415 142 -84 callsubr
          endchar
        </CharString>
        <CharString name="Ucircumflex">
          165 517 -104 callsubr
          833 502 -75 callgsubr
          endchar
        </CharString>
        <CharString name="Ucircumflexbelow">
          165 517 -104 callsubr
          99 -1599 rmoveto
          -9 callgsubr
        </CharString>
        <CharString name="Ucyrillic">
          1509 1443 -72 callsubr
          endchar
        </CharString>
        <CharString name="Udblgrave">
          1137 -27 callgsubr
          -686 -1079 -32 callsubr
        </CharString>
        <CharString name="Udieresis">
          165 517 -104 callsubr
          357 157 rmoveto
          -105 callgsubr
          506 hmoveto
          -105 callgsubr
          endchar
        </CharString>
        <CharString name="Udieresisacute">
          165 517 -104 callsubr
          464 519 rmoveto
          274 hlineto
          229 250 rlineto
          -327 hlineto
          -292 -652 rmoveto
          -105 callgsubr
          506 hmoveto
          -105 callgsubr
          endchar
        </CharString>
        <CharString name="Udieresisbelow">
          165 517 -104 callsubr
          -5 -1920 rmoveto
          -105 callgsubr
          506 hmoveto
          -105 callgsubr
          endchar
        </CharString>
        <CharString name="Udieresiscaron">
          165 517 -104 callsubr
          796 486 rmoveto
          326 326 rlineto
          -287 hlineto
          -159 -178 rlineto
          -22 hlineto
          -97 178 rlineto
          -283 hlineto
          212 -326 rlineto
          -136 -369 rmoveto
          -105 callgsubr
          506 hmoveto
          -105 callgsubr
          endchar
        </CharString>
        <CharString name="Udieresisgrave">
          681 1560 rmoveto
          -105 callgsubr
          506 hmoveto
          -105 callgsubr
          -184 652 rmoveto
          -323 hlineto
          141 -250 rlineto
          270 hlineto
          -926 -1445 -32 callsubr
        </CharString>
        <CharString name="Udieresismacron">
          165 517 -104 callsubr
          861 456 rmoveto
          -72 callgsubr
          218 288 rmoveto
          97 callgsubr
          782 hlineto
          -689 -92 rmoveto
          -72 callgsubr
          endchar
        </CharString>
        <CharString name="Udotbelow">
          165 517 -104 callsubr
          249 -1934 -104 callgsubr
          endchar
        </CharString>
        <CharString name="Ugrave">
          869 -33 callsubr
          -905 -1079 -32 callsubr
        </CharString>
        <CharString name="Uhookabove">
          165 517 -104 callsubr
          400 400 26 callsubr
        </CharString>
        <CharString name="Uhorn">
          675 -29 -19 callsubr
        </CharString>
        <CharString name="Uhornacute">
          675 -29 rmoveto
          287 204 172 285 50 hvcurveto
          139 787 rlineto
          -79 callgsubr
          vhcurveto
          -21 1625 -74 callsubr
          endchar
        </CharString>
        <CharString name="Uhorndotbelow">
          29 callsubr
          96 462 -19 callsubr
        </CharString>
        <CharString name="Uhorngrave">
          1355 1215 rmoveto
          -79 callgsubr
          287 204 172 285 50 vhcurveto
          -373 1494 85 callgsubr
        </CharString>
        <CharString name="Uhornhookabove">
          21 callsubr
          -89 -2040 -19 callsubr
        </CharString>
        <CharString name="Uhorntilde">
          675 -29 rmoveto
          287 204 172 285 50 hvcurveto
          139 787 rlineto
          -79 callgsubr
          vhcurveto
          121 1738 -86 callsubr
        </CharString>
        <CharString name="Uhungarumlaut">
          165 517 -104 callsubr
          684 153 11 callsubr
        </CharString>
        <CharString name="Uinvertedbreve">
          165 517 -104 callsubr
          650 489 -47 callsubr
        </CharString>
        <CharString name="Umacron">
          165 517 -104 callsubr
          968 188 -97 callsubr
          endchar
        </CharString>
        <CharString name="Umacrondieresis">
          165 517 -104 callsubr
          409 451 rmoveto
          -105 callgsubr
          -218 -288 -11 callgsubr
          689 92 rmoveto
          -105 callgsubr
          endchar
        </CharString>
        <CharString name="Uogonek">
          1013 -267 rmoveto
          -4 -8 -51 -4 -45 hhcurveto
          -68 -49 39 56 75 57 63 145 84 hvcurveto
          144 82 94 142 34 186 180 991 rcurveline
          -367 hlineto
          -166 -932 rlineto
          -152 -27 -69 -79 -107 hhcurveto
          -110 -72 74 112 19 3 23 5 29 hvcurveto
          161 906 28 callsubr
          -165 -926 rlineto
          -4 -18 -1 -18 -41 vvcurveto
          -281 217 -188 315 10 vhcurveto
          -4 -20 rlineto
          -108 -50 -62 -78 -88 34 callsubr
          endchar
        </CharString>
        <CharString name="Upsilondieresisgreek">
          -82 callgsubr
          227 64 callgsubr
          506 hmoveto
          -105 callgsubr
          endchar
        </CharString>
        <CharString name="Upsilongreek">
          -82 callgsubr
          endchar
        </CharString>
        <CharString name="Upsilontonosgreek">
          1006 hmoveto
          87 496 467 947 rlineto
          -355 hlineto
          -205 -589 rlineto
          -20 hlineto
          1 589 rlineto
          -347 hlineto
          133 -947 -87 -496 rlineto
          -501 1049 -45 callsubr
          endchar
        </CharString>
        <CharString name="Uring">
          165 517 -104 callsubr
          608 100 -17 callgsubr
          -1 112 rmoveto
          -51 -39 38 51 51 39 38 51 51 39 -38 -51 -50 -37 -39 -53 hvcurveto
          endchar
        </CharString>
        <CharString name="Ushortcyrillic">
          1509 1443 -72 callsubr
          147 1545 rmoveto
          -98 callgsubr
          -63 callsubr
          endchar
        </CharString>
        <CharString name="Utilde">
          165 517 -104 callsubr
          472 266 -86 callsubr
        </CharString>
        <CharString name="Utildeacute">
          165 517 -104 callsubr
          490 519 rmoveto
          284 hlineto
          158 250 rlineto
          -315 hlineto
          -145 -514 -56 callsubr
        </CharString>
        <CharString name="Utildebelow">
          165 517 -104 callsubr
          110 -1770 -103 callgsubr
          endchar
        </CharString>
        <CharString name="V">
          5 callsubr
          endchar
        </CharString>
        <CharString name="Vdotbelow">
          5 callsubr
          -561 -1934 -104 callgsubr
          endchar
        </CharString>
        <CharString name="Vecyrillic">
          -87 callgsubr
          endchar
        </CharString>
        <CharString name="Vtilde">
          5 callsubr
          -334 266 -86 callsubr
        </CharString>
        <CharString name="W">
          787 824 -85 callsubr
          endchar
        </CharString>
        <CharString name="Wacute">
          787 824 -85 callsubr
          -13 772 -74 callsubr
          endchar
        </CharString>
        <CharString name="Wcircumflex">
          787 824 -85 callsubr
          393 1121 -75 callgsubr
          endchar
        </CharString>
        <CharString name="Wdieresis">
          787 824 -85 callsubr
          -83 776 rmoveto
          -105 callgsubr
          506 hmoveto
          -105 callgsubr
          endchar
        </CharString>
        <CharString name="Wdotaccent">
          787 824 -85 callsubr
          168 747 -104 callgsubr
          endchar
        </CharString>
        <CharString name="Wdotbelow">
          787 824 -85 callsubr
          -190 -1315 -104 callgsubr
          endchar
        </CharString>
        <CharString name="Wgrave">
          868 -33 callsubr
          -282 -772 -85 callsubr
          endchar
        </CharString>
        <CharString name="X">
          -55 callsubr
          endchar
        </CharString>
        <CharString name="Xacyrillic">
          -55 callsubr
          endchar
        </CharString>
        <CharString name="Xdieresis">
          -55 callsubr
          152 872 rmoveto
          -105 callgsubr
          506 hmoveto
          -105 callgsubr
          endchar
        </CharString>
        <CharString name="Xdotaccent">
          -55 callsubr
          403 843 -104 callgsubr
          endchar
        </CharString>
        <CharString name="Xigreek">
          133 hmoveto
          1000 hlineto
          54 304 rlineto
          -1000 hlineto
          133 263 rmoveto
          826 hlineto
          53 300 rlineto
          -826 hlineto
          -39 272 rmoveto
          1000 hlineto
          53 304 rlineto
          -1000 hlineto
          endchar
        </CharString>
        <CharString name="Y">
          -82 callgsubr
          endchar
        </CharString>
        <CharString name="Yacute">
          -82 callgsubr
          297 32 callgsubr
          endchar
        </CharString>
        <CharString name="Ycircumflex">
          -82 callgsubr
          703 1945 -75 callgsubr
          endchar
        </CharString>
        <CharString name="Ydieresis">
          -82 callgsubr
          227 64 callgsubr
          506 hmoveto
          -105 callgsubr
          endchar
        </CharString>
        <CharString name="Ydotaccent">
          -82 callgsubr
          478 64 callsubr
          endchar
        </CharString>
        <CharString name="Ydotbelow">
          -82 callgsubr
          124 -5 callsubr
          endchar
        </CharString>
        <CharString name="Yericyrillic">
          457 707 -67 callgsubr
        </CharString>
        <CharString name="Ygrave">
          859 -33 callsubr
          -244 -1596 rmoveto
          87 496 617 947 rlineto
          -400 hlineto
          -335 -589 rlineto
          -20 hlineto
          -129 589 rlineto
          -382 hlineto
          283 -947 -87 -496 rlineto
          endchar
        </CharString>
        <CharString name="Yhookabove">
          -82 callgsubr
          270 1843 26 callsubr
        </CharString>
        <CharString name="Yicyrillic">
          1120 hmoveto
          -99 callsubr
          540 64 callgsubr
          506 hmoveto
          -105 callgsubr
          endchar
        </CharString>
        <CharString name="Ymacron">
          -82 callgsubr
          838 32 callsubr
          endchar
        </CharString>
        <CharString name="Ytilde">
          -82 callgsubr
          342 1709 -86 callsubr
        </CharString>
        <CharString name="Z">
          -65 callsubr
          endchar
        </CharString>
        <CharString name="Zacute">
          -65 callsubr
          585 1363 -74 callsubr
          endchar
        </CharString>
        <CharString name="Zcaron">
          -65 callsubr
          573 1352 -84 callsubr
          endchar
        </CharString>
        <CharString name="Zcircumflex">
          -65 callsubr
          991 1712 -75 callgsubr
          endchar
        </CharString>
        <CharString name="Zdotaccent">
          -65 callsubr
          766 1338 -104 callgsubr
          endchar
        </CharString>
        <CharString name="Zdotbelow">
          -65 callsubr
          408 -724 -104 callgsubr
          endchar
        </CharString>
        <CharString name="Zecyrillic">
          -60 callsubr
          endchar
        </CharString>
        <CharString name="Zetagreek">
          -65 callsubr
          endchar
        </CharString>
        <CharString name="Zhecyrillic">
          -42 callgsubr
          endchar
        </CharString>
        <CharString name="Zlinebelow">
          -65 callsubr
          768 -661 -97 callsubr
          endchar
        </CharString>
        <CharString name="a">
          -107 callgsubr
          endchar
        </CharString>
        <CharString name="aacute">
          1000 1296 -78 callsubr
          185 -818 -85 callgsubr
        </CharString>
        <CharString name="abreve">
          -107 callgsubr
          249 974 -93 callgsubr
          endchar
        </CharString>
        <CharString name="abreveacute">
          -107 callgsubr
          172 1397 rmoveto
          217 hlineto
          302 351 rlineto
          -278 hlineto
          -159 -732 -93 callgsubr
          endchar
        </CharString>
        <CharString name="abrevedotbelow">
          -107 callgsubr
          249 974 -93 callgsubr
          -334 -1709 -104 callgsubr
          endchar
        </CharString>
        <CharString name="abrevegrave">
          1094 10 callsubr
          -164 -1163 -85 callgsubr
        </CharString>
        <CharString name="abrevehookabove">
          -107 callgsubr
          249 1016 -93 callgsubr
          -184 594 -90 callgsubr
          endchar
        </CharString>
        <CharString name="abrevetilde">
          -107 callgsubr
          249 1016 -93 callgsubr
          -54 572 -103 callgsubr
          endchar
        </CharString>
        <CharString name="acaron">
          -107 callgsubr
          409 1052 -82 callsubr
          endchar
        </CharString>
        <CharString name="acircumflex">
          -107 callgsubr
          115 1388 rmoveto
          -9 callgsubr
        </CharString>
        <CharString name="acircumflexacute">
          -107 callgsubr
          524 1397 rmoveto
          266 hlineto
          301 351 rlineto
          -313 hlineto
          -661 -351 rmoveto
          -9 callgsubr
        </CharString>
        <CharString name="acircumflexdotbelow">
          -107 callgsubr
          115 1388 rmoveto
          -102 callsubr
          -554 -2123 -104 callgsubr
          endchar
        </CharString>
        <CharString name="acircumflexgrave">
          -107 callgsubr
          865 1397 -34 callsubr
        </CharString>
        <CharString name="acircumflexhookabove">
          -107 callgsubr
          117 1397 rmoveto
          -102 callsubr
          12 212 -90 callgsubr
          endchar
        </CharString>
        <CharString name="acircumflextilde">
          -107 callgsubr
          198 1591 -62 callgsubr
        </CharString>
        <CharString name="acute">
          880 1296 14 callgsubr
        </CharString>
        <CharString name="acutecmb">
          990 1296 14 callgsubr
        </CharString>
        <CharString name="acutecmb.short">
          734 32 callgsubr
          endchar
        </CharString>
        <CharString name="acutedotaccentcmb">
          655 1268 -104 callgsubr
          515 20 14 callgsubr
        </CharString>
        <CharString name="acutedotaccentcmb.short">
          946 32 callgsubr
          -525 -335 -104 callgsubr
          endchar
        </CharString>
        <CharString name="acyrillic">
          -107 callgsubr
          endchar
        </CharString>
        <CharString name="adblgrave">
          1079 -50 callgsubr
          120 -818 -85 callgsubr
        </CharString>
        <CharString name="adieresis">
          -107 callgsubr
          7 1035 rmoveto
          -105 callgsubr
          506 hmoveto
          -105 callgsubr
          endchar
        </CharString>
        <CharString name="adieresismacron">
          -107 callgsubr
          506 1344 rmoveto
          -72 callgsubr
          -506 hmoveto
          -72 callgsubr
          -48 340 2 callgsubr
        </CharString>
        <CharString name="adotaccent">
          -107 callgsubr
          261 1028 -104 callgsubr
          endchar
        </CharString>
        <CharString name="adotbelow">
          -107 callgsubr
          -85 -735 -104 callgsubr
          endchar
        </CharString>
        <CharString name="adotmacron">
          -107 callgsubr
          689 1474 -97 callsubr
          330 -479 -104 callgsubr
          endchar
        </CharString>
        <CharString name="ae">
          -80 callsubr
          endchar
        </CharString>
        <CharString name="aeacute">
          1001 1296 -78 callsubr
          -92 -829 rmoveto
          -4 -35 rlineto
          -104 -12 -52 -70 -66 hhcurveto
          -47 -31 31 47 71 54 54 74 3 hvcurveto
          388 225 rmoveto
          2 11 2 10 3 10 rrcurveto
          102 24 44 62 51 hhcurveto
          49 28 -40 -72 -25 -2 -22 -5 -36 hvcurveto
          -29 -290 rmoveto
          57 callsubr
          15 0 12 8 40 hvcurveto
          472 hlineto
          22 126 rlineto
          11 68 7 75 59 vvcurveto
          216 -116 143 -176 -101 -100 -59 -86 -45 vhcurveto
          -7 hlineto
          101 -36 -68 44 -123 hhcurveto
          -194 -157 -166 -237 -30 hvcurveto
          263 hlineto
          88 13 38 49 55 hhcurveto
          38 25 -27 -41 -25 -2 -14 -6 -34 hvcurveto
          -10 -57 -115 -6 rlineto
          -237 -12 -159 -159 -224 vvcurveto
          -172 118 -128 159 127 110 72 116 51 vhcurveto
          7 hlineto
          -121 34 83 -67 115 hhcurveto
          196 145 151 263 57 hvcurveto
          endchar
        </CharString>
        <CharString name="aemacron">
          -80 callsubr
          811 1088 -97 callsubr
          endchar
        </CharString>
        <CharString name="agrave">
          -107 callgsubr
          436 1052 -50 callsubr
          endchar
        </CharString>
        <CharString name="ahookabove">
          -107 callgsubr
          69 1284 -90 callgsubr
          endchar
        </CharString>
        <CharString name="ainvertedbreve">
          -107 callgsubr
          257 1385 -54 callgsubr
        </CharString>
        <CharString name="alphagreek">
          -43 callgsubr
          endchar
        </CharString>
        <CharString name="alphatonosgreek">
          -43 callgsubr
          -55 412 -45 callsubr
          endchar
        </CharString>
        <CharString name="amacron">
          -107 callgsubr
          623 1102 -97 callsubr
          endchar
        </CharString>
        <CharString name="ampersand">
          502 578 rmoveto
          33 19 190 -305 rlineto
          -43 -61 -54 -21 -56 hhcurveto
          -104 -70 62 94 78 46 74 76 42 hvcurveto
          392 -578 rmoveto
          366 hlineto
          -185 254 87 77 73 154 22 138 rlinecurve
          20 124 rlineto
          -276 hlineto
          -8 -55 -12 -85 -16 -47 -29 -30 rlinecurve
          -148 226 rlineto
          200 103 106 143 165 vvcurveto
          181 -143 124 -210 -239 -179 -163 -219 -94 36 -94 74 -102 vhcurveto
          -70 -34 rlineto
          -192 -93 -107 -155 -184 vvcurveto
          -215 175 -148 252 129 129 37 65 97 vhcurveto
          -31 1057 rmoveto
          -68 -56 -76 -89 -54 vhcurveto
          -49 62 -26 60 48 vvcurveto
          68 54 57 66 61 39 -39 -58 vhcurveto
          endchar
        </CharString>
        <CharString name="anoteleia">
          762 715 49 callgsubr
        </CharString>
        <CharString name="aogonek">
          639 244 rmoveto
          -74 -54 40 56 80 67 48 117 4 hvcurveto
          162 6 -9 -52 rlineto
          -110 -19 -83 -72 -107 hhcurveto
          148 -244 rmoveto
          -128 -72 -47 -69 -114 vvcurveto
          -131 117 -93 165 58 46 7 16 41 vhcurveto
          33 179 rlineto
          -6 -27 -20 -3 -23 hhcurveto
          -73 -43 36 60 93 77 63 158 34 hvcurveto
          124 701 rlineto
          5 31 3 35 27 vvcurveto
          210 -175 135 -271 -265 -222 -148 -202 -37 vhcurveto
          343 hlineto
          57 27 56 33 66 hhcurveto
          80 53 -42 -62 -4 -1 -12 -1 -7 hvcurveto
          -13 -72 -230 -8 rlineto
          -328 -11 -174 -133 -238 vvcurveto
          -177 142 -130 194 134 99 54 101 51 vhcurveto
          30 hlineto
          endchar
        </CharString>
        <CharString name="approxequal">
          616 741 rmoveto
          35 25 -14 -67 89 hvcurveto
          -58 79 64 -24 69 67 callgsubr
          -23 12 66 -85 hvcurveto
          54 -72 -62 23 -75 hhcurveto
          -194 -105 -159 -295 -1 hvcurveto
          249 hlineto
          94 6 30 49 51 hhcurveto
          -93 -524 rmoveto
          37 30 -17 -65 82 hvcurveto
          -57 78 64 -24 70 67 callgsubr
          -21 11 66 -87 hvcurveto
          55 -71 -62 23 -76 hhcurveto
          -193 -106 -159 -294 -1 hvcurveto
          249 hlineto
          93 6 30 49 51 hhcurveto
          endchar
        </CharString>
        <CharString name="aring">
          -107 callgsubr
          266 1148 -78 callgsubr
        </CharString>
        <CharString name="aringacute">
          1064 -1 callsubr
          -43 -889 -85 callgsubr
        </CharString>
        <CharString name="aringbelow">
          -107 callgsubr
          -92 -681 -78 callgsubr
        </CharString>
        <CharString name="asciicircum">
          817 1036 rmoveto
          19 hlineto
          141 -476 rlineto
          365 hlineto
          -300 883 rlineto
          -308 hlineto
          -610 -883 rlineto
          386 hlineto
          endchar
        </CharString>
        <CharString name="asciitilde">
          552 996 rmoveto
          -203 -126 -165 -264 -1 hvcurveto
          -22 2 -21 2 -23 vhcurveto
          277 hlineto
          122 32 56 66 37 26 -16 -51 51 vhcurveto
          -97 99 71 -36 93 hhcurveto
          201 124 169 263 1 hvcurveto
          20 -2 21 -2 23 vhcurveto
          -275 hlineto
          -120 -2 -31 -58 -65 hhcurveto
          -34 -30 17 48 -49 hvcurveto
          100 -102 -67 34 -93 hhcurveto
          endchar
        </CharString>
        <CharString name="asterisk">
          1353 709 rmoveto
          -94 258 -364 -155 89 387 -270 48 -49 -395 -290 272 -176 -211 317 -239 -380 -116 94 -257 366 155 -90 -387 270 -48 49 394 289 -271 177 211 -318 238 rlineto
          endchar
        </CharString>
        <CharString name="at">
          658 -213 rmoveto
          82 103 13 16 40 hvcurveto
          29 167 rlineto
          -14 -62 -88 -10 -67 hhcurveto
          -239 -108 122 269 87 9 93 19 98 hvcurveto
          15 84 rlineto
          433 76 122 164 246 hhcurveto
          233 108 -110 -238 -76 -8 -79 -16 -90 hvcurveto
          -37 -209 rlineto
          -67 -12 -34 -28 -70 hhcurveto
          -121 hlineto
          77 439 rlineto
          2 12 1 12 11 vvcurveto
          77 -47 47 -78 -77 -60 -55 -85 -15 vhcurveto
          -79 -451 rlineto
          -2 -12 -1 -12 -11 vvcurveto
          -76 49 -49 77 vhcurveto
          273 hlineto
          194 64 57 211 39 hvcurveto
          41 221 rlineto
          15 80 7 81 80 vvcurveto
          328 -170 166 -335 -354 -203 -240 -529 -93 vhcurveto
          -17 -93 rlineto
          -19 -118 -10 -97 -79 vvcurveto
          -362 165 -178 336 vhcurveto
          endchar
        </CharString>
        <CharString name="atilde">
          -107 callgsubr
          117 1162 -103 callgsubr
          endchar
        </CharString>
        <CharString name="austral">
          821 1118 rmoveto
          19 hlineto
          12 -330 rlineto
          -161 hlineto
          172 -290 rmoveto
          -287 hlineto
          61 155 rlineto
          220 hlineto
          24 -653 rmoveto
          385 hlineto
          -35 328 rlineto
          77 hlineto
          30 170 rlineto
          -125 hlineto
          -15 138 rlineto
          164 hlineto
          30 169 rlineto
          -212 hlineto
          -68 638 rlineto
          -450 hlineto
          -293 -638 rlineto
          -211 hlineto
          -30 -169 rlineto
          164 hlineto
          -64 -138 rlineto
          -124 hlineto
          -30 -170 rlineto
          76 hlineto
          -150 -328 rlineto
          379 hlineto
          130 328 rlineto
          360 hlineto
          endchar
        </CharString>
        <CharString name="b">
          -76 callgsubr
          endchar
        </CharString>
        <CharString name="backslash">
          1094 -270 rmoveto
          -311 1983 rlineto
          -357 hlineto
          321 -1983 rlineto
          endchar
        </CharString>
        <CharString name="baht">
          855 1164 rmoveto
          48 -23 26 -44 -60 vvcurveto
          -77 -50 -61 -75 -23 vhcurveto
          -46 -265 rmoveto
          80 -20 41 -50 -77 vvcurveto
          -115 -68 -72 -114 -11 vhcurveto
          -218 -2 rmoveto
          63 358 rlineto
          79 hlineto
          -63 -358 rlineto
          83 920 rmoveto
          79 hlineto
          -56 -318 rlineto
          -79 hlineto
          386 -111 rmoveto
          213 36 126 129 180 vvcurveto
          194 -152 125 -254 21 vhcurveto
          25 144 rlineto
          -138 hlineto
          -25 -141 rlineto
          -437 -98 callsubr
          437 hlineto
          -24 -135 rlineto
          138 hlineto
          24 135 rlineto
          110 hlineto
          288 209 171 237 166 -121 136 -169 26 hvcurveto
          endchar
        </CharString>
        <CharString name="bar">
          728 -483 rmoveto
          387 2196 rlineto
          -360 hlineto
          -387 -2196 rlineto
          endchar
        </CharString>
        <CharString name="bdotaccent">
          -76 callgsubr
          370 1002 -104 callgsubr
          endchar
        </CharString>
        <CharString name="bdotbelow">
          -76 callgsubr
          -136 -761 -104 callgsubr
          endchar
        </CharString>
        <CharString name="becyrillic">
          701 244 rmoveto
          -109 -68 79 127 36 2 26 7 35 hvcurveto
          167 31 86 104 108 hhcurveto
          123 49 -71 -134 -36 -3 -26 -6 -36 hvcurveto
          -176 -29 -79 -95 -112 hhcurveto
          -212 608 rmoveto
          72 251 129 107 237 5 251 4 117 12 48 23 49 281 rcurveline
          -65 -26 -139 -17 -250 -10 -426 -17 -220 -233 -95 -537 rrcurveto
          -11 -65 -6 -62 -59 vvcurveto
          -336 190 -199 320 322 210 190 349 60 vhcurveto
          6 34 4 37 43 vvcurveto
          267 -153 172 -265 -160 -135 -79 -135 -71 vhcurveto
          endchar
        </CharString>
        <CharString name="betagreek">
          62 -368 rmoveto
          333 hlineto
          100 567 rlineto
          22 hlineto
          -142 17 121 -74 169 hhcurveto
          255 197 217 282 168 -84 135 -168 44 hvcurveto
          4 19 rlineto
          162 49 100 116 181 vvcurveto
          211 -182 151 -256 -311 -170 -148 -318 -55 vhcurveto
          404 -832 rmoveto
          -109 -77 79 109 35 4 32 6 33 hvcurveto
          95 553 rlineto
          123 21 67 66 102 hhcurveto
          102 46 -63 -80 -133 -94 -61 -120 hvcurveto
          -59 hlineto
          -46 -269 rlineto
          51 hlineto
          144 78 -67 -125 -128 -74 -104 -137 hvcurveto
          endchar
        </CharString>
        <CharString name="bitcoin">
          983 770 rmoveto
          221 24 123 135 218 vvcurveto
          155 -116 99 -196 12 vhcurveto
          36 208 rlineto
          -161 hlineto
          -36 -207 rlineto
          -157 hlineto
          36 207 rlineto
          -160 hlineto
          -36 -207 rlineto
          -212 hlineto
          -246 -1394 rlineto
          212 hlineto
          -36 -205 rlineto
          160 hlineto
          36 205 rlineto
          157 hlineto
          -36 -205 rlineto
          161 hlineto
          36 205 rlineto
          289 9 212 190 249 vvcurveto
          156 -122 119 -168 8 vhcurveto
          -364 408 rmoveto
          194 hlineto
          97 51 -40 -75 -113 -86 -77 -128 hvcurveto
          -182 hlineto
          -102 -579 rmoveto
          62 351 rlineto
          202 hlineto
          121 62 -45 -86 -128 -98 -92 -138 hvcurveto
          endchar
        </CharString>
        <CharString name="blinebelow">
          -76 callgsubr
          224 -698 -97 callsubr
          endchar
        </CharString>
        <CharString name="braceleft">
          1024 -270 rmoveto
          48 270 rlineto
          -86 hlineto
          -101 -37 28 79 25 4 31 7 39 hvcurveto
          45 256 rlineto
          3 14 1 21 38 vvcurveto
          98 -86 71 -130 11 vhcurveto
          4 20 165 14 109 86 24 135 rlinecurve
          51 286 rlineto
          159 28 32 32 135 hhcurveto
          86 hlineto
          48 270 rlineto
          -180 hlineto
          -324 -125 -100 -299 -53 hvcurveto
          -39 -220 rlineto
          -160 -28 -65 -44 -209 hhcurveto
          -60 -338 rlineto
          166 67 -44 -107 -24 -2 -24 -5 -23 hvcurveto
          -33 -190 rlineto
          -9 -57 -5 -45 -36 vvcurveto
          -194 107 -78 267 vhcurveto
          endchar
        </CharString>
        <CharString name="braceright">
          497 1713 rmoveto
          91 callsubr
          86 hlineto
          101 37 -28 -79 -25 -4 -31 -7 -39 hvcurveto
          -45 -256 rlineto
          -3 -14 -1 -21 -38 vvcurveto
          -98 86 -71 130 -11 vhcurveto
          -4 -20 -165 -14 -109 -86 -24 -135 rlinecurve
          -51 -286 rlineto
          -159 -28 -32 -32 -135 hhcurveto
          -86 80 callsubr
          180 hlineto
          324 125 100 299 53 hvcurveto
          39 220 rlineto
          160 28 65 44 209 hhcurveto
          60 338 rlineto
          -166 -67 44 107 24 2 24 5 23 hvcurveto
          33 190 rlineto
          9 57 5 45 36 vvcurveto
          194 -107 78 -267 vhcurveto
          endchar
        </CharString>
        <CharString name="bracketleft">
          601 1713 rmoveto
          -350 -1983 rlineto
          715 hlineto
          48 270 rlineto
          -361 -53 callsubr
          349 hlineto
          48 270 rlineto
          endchar
        </CharString>
        <CharString name="bracketright">
          566 1713 rmoveto
          91 callsubr
          349 -98 callsubr
          -361 80 callsubr
          715 hlineto
          350 1983 rlineto
          endchar
        </CharString>
        <CharString name="breve">
          878 1218 -93 callgsubr
          endchar
        </CharString>
        <CharString name="breveacutecmb">
          796 1641 rmoveto
          217 hlineto
          302 351 rlineto
          -278 hlineto
          -159 -732 -93 callgsubr
          endchar
        </CharString>
        <CharString name="breveacutecmb.short">
          828 1945 rmoveto
          247 hlineto
          266 267 rlineto
          -301 hlineto
          -112 -631 rmoveto
          104 callgsubr
          -247 hlineto
          0 callgsubr
          endchar
        </CharString>
        <CharString name="brevebelowcmb">
          580 -473 -93 callgsubr
          endchar
        </CharString>
        <CharString name="brevecmb">
          878 1218 -93 callgsubr
          endchar
        </CharString>
        <CharString name="brevecmb.short">
          920 1581 -53 callgsubr
        </CharString>
        <CharString name="brevecyrillic">
          890 1261 rmoveto
          -63 callsubr
          -251 hlineto
          -98 callgsubr
          endchar
        </CharString>
        <CharString name="brevecyrillic.short">
          953 1599 rmoveto
          -63 callsubr
          -251 hlineto
          -98 callgsubr
          endchar
        </CharString>
        <CharString name="brevegravecmb">
          1084 10 callsubr
          endchar
        </CharString>
        <CharString name="brevegravecmb.short">
          1078 72 callsubr
          89 -364 rmoveto
          104 callgsubr
          -247 hlineto
          0 callgsubr
          endchar
        </CharString>
        <CharString name="brevehookabovecmb">
          878 1260 -93 callgsubr
          -184 594 -90 callgsubr
          endchar
        </CharString>
        <CharString name="brevehookabovecmb.short">
          763 2080 rmoveto
          75 callsubr
          67 -108 rlineto
          68 callgsubr
          139 -647 rmoveto
          24 callsubr
          -223 hlineto
          57 callgsubr
          endchar
        </CharString>
        <CharString name="brevetildecmb">
          878 1260 -93 callgsubr
          -54 572 -103 callgsubr
          endchar
        </CharString>
        <CharString name="brevetildecmb.short">
          930 1581 rmoveto
          24 callsubr
          -223 hlineto
          57 callgsubr
          -61 471 rmoveto
          71 callgsubr
          -204 hlineto
          46 callgsubr
          hhcurveto
          endchar
        </CharString>
        <CharString name="brokenbar">
          951 782 84 callsubr
          137 -1266 84 callsubr
          endchar
        </CharString>
        <CharString name="bullet">
          747 177 rmoveto
          257 209 209 257 257 -209 209 -257 -257 -209 -209 -257 -257 209 -209 257 hvcurveto
          endchar
        </CharString>
        <CharString name="c">
          1291 701 -87 callsubr
          endchar
        </CharString>
        <CharString name="cacute">
          1009 1296 -78 callsubr
          610 -595 -87 callsubr
          endchar
        </CharString>
        <CharString name="caron">
          1038 43 callgsubr
          endchar
        </CharString>
        <CharString name="caroncmb">
          1038 43 callgsubr
          endchar
        </CharString>
        <CharString name="caroncmb.short">
          749 1585 -84 callsubr
          endchar
        </CharString>
        <CharString name="carondotaccentcmb">
          1038 1260 -82 callsubr
          283 426 -104 callgsubr
          endchar
        </CharString>
        <CharString name="carondotaccentcmb.short">
          1001 1934 14 callsubr
        </CharString>
        <CharString name="ccaron">
          1291 701 -87 callsubr
          108 595 -82 callsubr
          endchar
        </CharString>
        <CharString name="ccedilla">
          -43 callsubr
        </CharString>
        <CharString name="ccedillaacute">
          1367 15 callsubr
          -787 -720 rmoveto
          -11 -59 -6 -67 -62 vvcurveto
          -203 124 -146 201 -48 vhcurveto
          -58 -93 -80 callgsubr
          49 77 274 11 202 165 46 253 rlinecurve
          -342 hlineto
          -114 -35 -52 -44 -99 hhcurveto
          -99 -54 65 120 26 6 48 8 45 hvcurveto
          18 100 90 callsubr
          70 74 113 hhcurveto
          87 65 -63 -84 -17 0 -3 -1 -4 hvcurveto
          342 hlineto
          3 27 1 28 21 vvcurveto
          215 -200 152 -283 -293 -220 -170 -265 -49 vhcurveto
          endchar
        </CharString>
        <CharString name="ccircumflex">
          1291 701 -87 callsubr
          -186 931 rmoveto
          -9 callgsubr
        </CharString>
        <CharString name="cdotaccent">
          1291 701 -87 callsubr
          -40 571 -104 callgsubr
          endchar
        </CharString>
        <CharString name="cedi">
          616 898 rmoveto
          23 130 55 85 79 33 -147 -831 rcurveline
          -48 34 -28 59 74 vvcurveto
          28 5 41 7 39 vhcurveto
          836 313 rmoveto
          4 39 2 21 17 vvcurveto
          247 -161 184 -245 48 vhcurveto
          22 125 rlineto
          -170 hlineto
          -20 -113 -326 -12 -206 -185 -59 -336 rlinecurve
          0 callsubr
          -252 157 -189 240 -56 vhcurveto
          -24 -136 rlineto
          170 hlineto
          21 118 322 4 212 180 61 325 rlinecurve
          4 16 3 25 1 23 rrcurveto
          -375 hlineto
          -1 -7 0 -5 -2 -11 -26 -137 -54 -75 -89 -21 150 852 rcurveline
          53 -30 33 -58 -74 vvcurveto
          -33 -1 -20 -2 -22 vhcurveto
          endchar
        </CharString>
        <CharString name="cedilla">
          489 -239 rmoveto
          -28 callgsubr
          -193 hlineto
          -64 -102 rlineto
          endchar
        </CharString>
        <CharString name="cedillacmb">
          449 -239 rmoveto
          -28 callgsubr
          -193 hlineto
          -64 -102 rlineto
          endchar
        </CharString>
        <CharString name="cent">
          1269 530 rmoveto
          -344 hlineto
          -89 -25 -54 -43 -86 hhcurveto
          -91 -51 57 101 25 5 52 7 37 hvcurveto
          18 92 rlineto
          124 24 69 69 99 hhcurveto
          86 55 -54 -84 -2 hvcurveto
          341 hlineto
          23 218 -102 146 -216 60 37 212 rcurveline
          -292 hlineto
          -34 -196 -230 -38 -161 -158 -44 -230 rlinecurve
          -25 -128 rlineto
          -10 -64 -6 -68 -56 vvcurveto
          -186 102 -142 175 -58 vhcurveto
          -39 -220 rlineto
          292 hlineto
          35 199 236 35 167 158 41 229 rlinecurve
          endchar
        </CharString>
        <CharString name="checyrillic">
          1336 1113 -61 callgsubr
          354 hlineto
          endchar
        </CharString>
        <CharString name="chigreek">
          -10 -368 rmoveto
          348 hlineto
          298 433 rlineto
          19 hlineto
          86 -257 rlineto
          -124 42 83 -62 145 hhcurveto
          76 63 16 8 21 hvcurveto
          43 240 rlineto
          -3 -14 -15 -2 -18 hhcurveto
          -76 -39 25 93 -35 hvcurveto
          -138 371 550 743 rlineto
          -350 hlineto
          -297 -432 rlineto
          -19 hlineto
          -92 247 rlineto
          141 -53 -62 63 -162 hhcurveto
          -43 -60 -10 -14 -38 hvcurveto
          -44 -240 rlineto
          4 22 10 1 12 hhcurveto
          65 42 -39 -91 34 hvcurveto
          141 -376 rlineto
          endchar
        </CharString>
        <CharString name="circumflex">
          744 1632 rmoveto
          -9 callgsubr
        </CharString>
        <CharString name="circumflexacutecmb">
          1153 1641 rmoveto
          266 hlineto
          301 351 rlineto
          -313 hlineto
          -661 -351 rmoveto
          -9 callgsubr
        </CharString>
        <CharString name="circumflexacutecmb.short">
          1218 1897 -12 callgsubr
        </CharString>
        <CharString name="circumflexbelowcmb">
          429 -156 rmoveto
          -9 callgsubr
        </CharString>
        <CharString name="circumflexcmb">
          744 1632 rmoveto
          -9 callgsubr
        </CharString>
        <CharString name="circumflexcmb.short">
          1140 1945 -75 callgsubr
          endchar
        </CharString>
        <CharString name="circumflexgravecmb">
          1494 1641 -34 callsubr
        </CharString>
        <CharString name="circumflexgravecmb.short">
          1540 1897 -13 callsubr
        </CharString>
        <CharString name="circumflexhookabovecmb">
          746 1641 rmoveto
          -102 callsubr
          12 212 -90 callgsubr
          endchar
        </CharString>
        <CharString name="circumflexhookabovecmb.short">
          1130 1856 -39 callgsubr
        </CharString>
        <CharString name="circumflextildecmb">
          827 1835 -62 callgsubr
        </CharString>
        <CharString name="circumflextildecmb.short">
          1127 1856 rmoveto
          -340 hlineto
          -317 -275 rlineto
          302 -45 callgsubr
          294 hlineto
          -479 471 -55 callgsubr
        </CharString>
        <CharString name="colon">
          673 -27 -18 callsubr
          132 751 -18 callsubr
          endchar
        </CharString>
        <CharString name="coloncurrency">
          811 -147 rmoveto
          50 121 rlineto
          -2 5 6 -1 6 hhcurveto
          82 112 10 14 85 hvcurveto
          53 300 rlineto
          -13 -50 -86 -9 -76 hhcurveto
          -3 -3 0 1 -1 hvcurveto
          548 1310 rlineto
          -171 hlineto
          -53 -127 -45 7 -47 5 -42 2 rlinecurve
          1 3 -1 114 47 hvcurveto
          -172 hlineto
          -49 -119 -452 -45 -279 -243 -73 -415 rlinecurve
          -52 -297 85 -252 192 -120 -99 -240 rcurveline
          171 hlineto
          72 174 37 -16 41 -13 41 -9 rlinecurve
          -56 -136 rlineto
          -50 600 rmoveto
          -30 79 -7 121 19 110 33 185 93 116 171 68 rrcurveto
          -44 -848 rmoveto
          -48 9 -46 19 -22 22 347 836 rcurveline
          69 4 22 -2 43 -6 rrcurveto
          endchar
        </CharString>
        <CharString name="comma">
          595 -335 rmoveto
          333 777 rlineto
          -388 hlineto
          -273 -777 rlineto
          endchar
        </CharString>
        <CharString name="commaaccent">
          603 -494 -54 callsubr
          endchar
        </CharString>
        <CharString name="commabelowcmb">
          545 -504 -54 callsubr
          endchar
        </CharString>
        <CharString name="copyright">
          760 173 -4 callsubr
          276 510 rmoveto
          139 8 -96 90 -157 hhcurveto
          -187 -114 -136 -224 -137 96 -81 162 132 96 74 128 34 hvcurveto
          -166 hlineto
          -44 -15 -31 -21 -47 hhcurveto
          -65 -30 32 71 121 52 82 76 55 31 -34 -60 hvcurveto
          endchar
        </CharString>
        <CharString name="cruzeiro">
          1191 280 rmoveto
          -9 -43 -52 -5 -39 hhcurveto
          -35 -20 1 3 -14 hvcurveto
          34 183 rlineto
          138 25 76 82 103 hhcurveto
          38 56 -12 -13 23 hvcurveto
          45 253 rlineto
          13 -20 -36 8 -38 hhcurveto
          -101 -70 -58 -116 -41 hvcurveto
          -15 hlineto
          28 159 rlineto
          -271 hlineto
          -104 -588 rlineto
          -117 56 -60 106 151 vvcurveto
          327 192 211 297 115 117 -18 -29 69 vhcurveto
          52 292 rlineto
          37 -77 -117 20 -142 hhcurveto
          -549 -324 -317 -539 -411 314 -233 443 83 68 4 9 55 hvcurveto
          endchar
        </CharString>
        <CharString name="currency">
          1346 890 rmoveto
          -168 252 -150 -119 -59 49 -72 32 -80 14 rlinecurve
          -75 13 -78 -6 -76 -25 -98 163 rcurveline
          -245 -179 99 -152 -50 -59 -32 -69 -14 -84 rlinecurve
          -15 -86 5 -74 27 -74 -144 -107 rcurveline
          168 -252 150 118 61 -48 70 -32 77 -13 rlinecurve
          79 -14 78 5 74 26 100 -164 rcurveline
          244 180 -100 151 52 60 31 68 15 84 rlinecurve
          15 86 -6 76 -27 70 rrcurveto
          -504 -348 rmoveto
          -112 20 -69 106 19 111 20 111 102 76 111 -20 111 -20 70 -105 -20 -111 -19 -112 -102 -75 -111 19 rrcurveto
          endchar
        </CharString>
        <CharString name="d">
          -94 callsubr
          endchar
        </CharString>
        <CharString name="dagger">
          894 717 rmoveto
          345 -4 47 270 -345 -3 75 374 rlineto
          -288 hlineto
          -57 -374 -345 3 -47 -270 345 4 -165 -887 rlineto
          288 hlineto
          endchar
        </CharString>
        <CharString name="daggerdbl">
          1148 201 rmoveto
          48 270 -343 -4 44 250 342 -4 47 270 -340 -3 70 374 rlineto
          -288 hlineto
          -62 -374 -340 3 -47 -270 342 4 -44 -250 -341 4 -48 -270 341 3 -70 -374 rlineto
          288 hlineto
          62 374 rlineto
          endchar
        </CharString>
        <CharString name="dblgrave">
          1149 -50 callgsubr
          endchar
        </CharString>
        <CharString name="dblgravecmb">
          1069 -50 callgsubr
          endchar
        </CharString>
        <CharString name="dblgravecmb.short">
          1141 -27 callgsubr
          endchar
        </CharString>
        <CharString name="dcaron">
          1286 1530 rmoveto
          -90 -510 rlineto
          218 hlineto
          122 510 rlineto
          -1004 -398 rmoveto
          -188 -144 -169 -263 -44 hvcurveto
          -49 -290 rlineto
          -7 -41 -6 -38 -63 vvcurveto
          -164 120 -121 170 122 74 71 116 44 vhcurveto
          22 hlineto
          -30 -170 rlineto
          312 hlineto
          268 1530 rlineto
          -311 hlineto
          -103 -582 rlineto
          -20 hlineto
          104 -15 -71 80 -144 hhcurveto
          76 -276 rmoveto
          84 50 -64 -62 -25 -3 -23 -4 -21 hvcurveto
          -40 -233 rlineto
          -107 -18 -65 -51 -78 hhcurveto
          -83 -50 60 67 23 0 20 4 21 hvcurveto
          42 238 rlineto
          106 19 64 51 78 hhcurveto
          endchar
        </CharString>
        <CharString name="dcircumflexbelow">
          -94 callsubr
          -322 -1012 rmoveto
          -9 callgsubr
        </CharString>
        <CharString name="dcommaaccent">
          -94 callsubr
          -157 -1360 -54 callsubr
          endchar
        </CharString>
        <CharString name="dcroat">
          868 456 rmoveto
          16 callsubr
          26 2 23 4 27 10 callgsubr
          93 69 -64 -86 -26 -2 -23 -4 -27 hvcurveto
          616 780 rmoveto
          -117 hlineto
          21 120 rlineto
          -370 88 callgsubr
          -107 82 callgsubr
          107 hlineto
          -59 -332 rlineto
          -22 hlineto
          131 -18 -119 87 -163 hhcurveto
          -230 -166 -182 -301 -44 hvcurveto
          -27 -183 rlineto
          -7 -45 -3 -42 -44 vvcurveto
          -212 137 -140 207 143 119 85 136 47 vhcurveto
          22 hlineto
          -36 -204 75 callgsubr
          220 1246 rlineto
          117 hlineto
          endchar
        </CharString>
        <CharString name="ddotaccent">
          -94 callsubr
          -78 416 -104 callgsubr
          endchar
        </CharString>
        <CharString name="ddotbelow">
          -94 callsubr
          -172 -1347 -104 callgsubr
          endchar
        </CharString>
        <CharString name="decyrillic">
          -13 callgsubr
        </CharString>
        <CharString name="degree">
          836 776 rmoveto
          217 162 163 217 217 -162 163 -217 -217 -162 -163 -217 -217 162 -163 217 hvcurveto
          206 vmoveto
          -97 -68 72 102 102 68 72 97 97 68 -72 -102 -102 -68 -72 -97 hvcurveto
          endchar
        </CharString>
        <CharString name="deltagreek">
          1278 614 rmoveto
          205 -103 111 -214 138 vhcurveto
          -52 33 -66 34 68 vvcurveto
          67 44 32 90 102 111 -28 -53 109 vhcurveto
          45 253 rlineto
          50 -111 -156 32 -136 hhcurveto
          -292 -173 -113 -192 -95 35 -94 126 -69 hvcurveto
          -5 -20 -244 -24 -164 -150 -40 -236 rlinecurve
          -17 -101 -2 -27 -26 vvcurveto
          -259 195 -176 287 336 203 165 327 73 vhcurveto
          15 67 4 38 43 vvcurveto
          -507 178 rmoveto
          102 61 -67 -112 -20 -2 -21 -4 -22 hvcurveto
          -12 -67 rlineto
          -146 -26 -96 -96 -121 hhcurveto
          -97 -66 72 107 20 2 21 4 22 hvcurveto
          12 67 rlineto
          146 26 96 96 121 hhcurveto
          endchar
        </CharString>
        <CharString name="dieresis">
          637 1287 rmoveto
          -105 callgsubr
          506 hmoveto
          -105 callgsubr
          endchar
        </CharString>
        <CharString name="dieresisacutecmb">
          745 1641 rmoveto
          277 hlineto
          333 351 rlineto
          -324 hlineto
          -402 -745 rmoveto
          -105 callgsubr
          506 hmoveto
          -105 callgsubr
          endchar
        </CharString>
        <CharString name="dieresisacutecmb.short">
          798 1962 rmoveto
          274 hlineto
          229 250 rlineto
          -327 hlineto
          -292 -652 rmoveto
          -105 callgsubr
          506 hmoveto
          -105 callgsubr
          endchar
        </CharString>
        <CharString name="dieresisbelowcmb">
          325 -477 rmoveto
          -105 callgsubr
          506 hmoveto
          -105 callgsubr
          endchar
        </CharString>
        <CharString name="dieresiscaroncmb">
          1074 1641 rmoveto
          330 356 rlineto
          -283 hlineto
          -170 -208 rlineto
          -20 hlineto
          -96 208 rlineto
          -275 hlineto
          204 -356 rlineto
          -135 -394 rmoveto
          -105 callgsubr
          506 hmoveto
          -105 callgsubr
          endchar
        </CharString>
        <CharString name="dieresiscaroncmb.short">
          1130 1929 rmoveto
          326 326 rlineto
          -287 hlineto
          -159 -178 rlineto
          -22 hlineto
          -97 178 rlineto
          -283 hlineto
          212 -326 rlineto
          -136 -369 rmoveto
          -105 callgsubr
          506 hmoveto
          -105 callgsubr
          endchar
        </CharString>
        <CharString name="dieresiscmb">
          636 1279 rmoveto
          -105 callgsubr
          506 hmoveto
          -105 callgsubr
          endchar
        </CharString>
        <CharString name="dieresiscmb.short">
          691 64 callgsubr
          506 hmoveto
          -105 callgsubr
          endchar
        </CharString>
        <CharString name="dieresisgravecmb">
          631 1247 rmoveto
          -105 callgsubr
          506 hmoveto
          -105 callgsubr
          -402 745 rmoveto
          -324 hlineto
          333 -351 rlineto
          277 hlineto
          endchar
        </CharString>
        <CharString name="dieresisgravecmb.short">
          685 1560 rmoveto
          -105 callgsubr
          506 hmoveto
          -105 callgsubr
          -184 652 rmoveto
          -323 hlineto
          141 -250 rlineto
          270 hlineto
          endchar
        </CharString>
        <CharString name="dieresismacroncmb">
          1135 1588 rmoveto
          -72 callgsubr
          -506 hmoveto
          -72 callgsubr
          -48 340 2 callgsubr
        </CharString>
        <CharString name="dieresismacroncmb.short">
          1194 1899 rmoveto
          -72 callgsubr
          218 288 rmoveto
          97 callgsubr
          782 hlineto
          -689 -92 rmoveto
          -72 callgsubr
          endchar
        </CharString>
        <CharString name="dieresistonosgreek">
          502 1267 -48 callsubr
        </CharString>
        <CharString name="divide">
          1266 503 rmoveto
          50 280 rlineto
          -1102 hlineto
          -50 -280 rlineto
          615 369 rmoveto
          120 78 77 112 113 -78 74 -120 -118 -77 -74 -113 -112 77 -77 118 hvcurveto
          -81 -835 rmoveto
          120 78 76 112 113 -78 75 -120 -118 -77 -75 -113 -112 77 -76 118 hvcurveto
          endchar
        </CharString>
        <CharString name="djecyrillic">
          607 932 rmoveto
          57 314 rlineto
          264 87 callsubr
          -264 hlineto
          22 120 rlineto
          -346 88 callgsubr
          -99 82 callgsubr
          99 hlineto
          -220 -1246 rlineto
          30 callgsubr
          652 rlineto
          133 23 83 61 83 callgsubr
          -68 -80 -24 -3 -21 -4 -24 hvcurveto
          -111 -629 -2 -14 rlineto
          -76 -13 -43 -32 -82 hhcurveto
          -23 -22 2 3 -10 hvcurveto
          -46 -253 rlineto
          -4 19 56 -4 42 hhcurveto
          261 173 124 226 39 hvcurveto
          68 394 56 316 -62 callsubr
          endchar
        </CharString>
        <CharString name="dlinebelow">
          -94 callsubr
          188 -1284 -97 callsubr
          endchar
        </CharString>
        <CharString name="dollar">
          799 566 rmoveto
          123 -45 44 -47 -80 vvcurveto
          -103 -91 -72 -139 -9 vhcurveto
          -19 690 rmoveto
          -84 42 -43 53 65 vvcurveto
          92 71 63 114 16 vhcurveto
          590 -186 rmoveto
          1 7 1 20 13 vvcurveto
          187 -176 159 -233 40 vhcurveto
          20 113 rlineto
          -141 hlineto
          -18 -104 rlineto
          -324 -10 -229 -186 -256 vvcurveto
          -190 121 -143 217 -67 vhcurveto
          61 -19 -68 -389 rlineto
          -108 24 -64 62 88 vvcurveto
          7 -304 -41 vlineto
          -196 179 -155 253 -37 vhcurveto
          -20 -113 rlineto
          141 hlineto
          18 104 rlineto
          347 7 244 190 266 vvcurveto
          194 -120 141 -219 64 vhcurveto
          -95 28 65 370 rlineto
          84 -27 60 -66 -78 vvcurveto
          -7 vlineto
          endchar
        </CharString>
        <CharString name="dotaccent">
          890 31 callgsubr
          endchar
        </CharString>
        <CharString name="dotaccentcmb">
          890 31 callgsubr
          endchar
        </CharString>
        <CharString name="dotaccentcmb.short">
          942 64 callsubr
          endchar
        </CharString>
        <CharString name="dotbelowcmb">
          29 callsubr
          endchar
        </CharString>
        <CharString name="dotlessi">
          1130 hmoveto
          -92 callsubr
          endchar
        </CharString>
        <CharString name="dotlessj">
          1125 1113 -30 callgsubr
          endchar
        </CharString>
        <CharString name="dotmacroncmb">
          1318 1718 -97 callsubr
          330 -479 -104 callgsubr
          endchar
        </CharString>
        <CharString name="dotmacroncmb.short">
          935 1900 rmoveto
          -72 callgsubr
          -343 91 62 callsubr
        </CharString>
        <CharString name="dzecyrillic">
          278 768 rmoveto
          8 callsubr
          140 -46 rlineto
          -100 callsubr
          vhcurveto
          endchar
        </CharString>
        <CharString name="dzhecyrillic">
          1398 1113 rmoveto
          -354 hlineto
          -151 -851 rlineto
          -328 hlineto
          151 851 103 callgsubr
          -197 -1113 rlineto
          358 3 callsubr
          107 callsubr
          358 hlineto
          endchar
        </CharString>
        <CharString name="e">
          -106 callsubr
          endchar
        </CharString>
        <CharString name="eacute">
          1005 1296 -78 callsubr
          188 -968 -71 callgsubr
        </CharString>
        <CharString name="ebreve">
          -106 callsubr
          -321 890 -93 callgsubr
          endchar
        </CharString>
        <CharString name="ecaron">
          -106 callsubr
          -161 968 -82 callsubr
          endchar
        </CharString>
        <CharString name="ecedilla">
          587 681 -46 callgsubr
        </CharString>
        <CharString name="ecedillabreve">
          1084 1587 -23 callgsubr
          -742 -906 -46 callgsubr
        </CharString>
        <CharString name="ecircumflex">
          -106 callsubr
          -455 1304 rmoveto
          -9 callgsubr
        </CharString>
        <CharString name="ecircumflexacute">
          -106 callsubr
          -46 1313 rmoveto
          266 hlineto
          301 351 rlineto
          -313 hlineto
          -661 -351 rmoveto
          -9 callgsubr
        </CharString>
        <CharString name="ecircumflexbelow">
          -106 callsubr
          -790 -484 rmoveto
          -9 callgsubr
        </CharString>
        <CharString name="ecircumflexdotbelow">
          -106 callsubr
          -455 1304 rmoveto
          -102 callsubr
          -539 -2123 -104 callgsubr
          endchar
        </CharString>
        <CharString name="ecircumflexgrave">
          -106 callsubr
          295 1313 -34 callsubr
        </CharString>
        <CharString name="ecircumflexhookabove">
          -106 callsubr
          -453 1313 rmoveto
          -102 callsubr
          12 212 -90 callgsubr
          endchar
        </CharString>
        <CharString name="ecircumflextilde">
          -106 callsubr
          -372 1507 -62 callgsubr
        </CharString>
        <CharString name="ecyrillic">
          896 404 -21 callsubr
        </CharString>
        <CharString name="edblgrave">
          1084 -50 callgsubr
          123 -968 -71 callgsubr
        </CharString>
        <CharString name="edieresis">
          -106 callsubr
          -563 951 rmoveto
          -105 callgsubr
          506 hmoveto
          -105 callgsubr
          endchar
        </CharString>
        <CharString name="edotaccent">
          -106 callsubr
          -309 944 -104 callgsubr
          endchar
        </CharString>
        <CharString name="edotbelow">
          -106 callsubr
          -640 -819 -104 callgsubr
          endchar
        </CharString>
        <CharString name="efcyrillic">
          946 891 rmoveto
          83 -4 47 -103 -134 vvcurveto
          -18 -1 -18 -1 -19 vhcurveto
          -2 -19 -2 -19 -4 -20 -33 -189 -96 -121 -109 -5 rrcurveto
          -312 hmoveto
          -84 4 -47 100 135 vvcurveto
          18 1 19 2 20 vhcurveto
          2 19 3 20 3 20 33 185 98 124 107 5 rrcurveto
          -231 -1259 rmoveto
          330 hlineto
          63 355 288 10 218 178 60 342 rlinecurve
          5 27 3 26 2 26 rrcurveto
          3 25 1 26 24 vvcurveto
          257 -149 175 -230 27 vhcurveto
          59 332 92 callsubr
          -58 -328 -283 -10 -226 -192 -59 -335 rlinecurve
          -5 -28 -4 -27 -2 -27 rrcurveto
          -3 -27 -1 -26 -26 vvcurveto
          -258 148 -168 232 -27 vhcurveto
          endchar
        </CharString>
        <CharString name="egrave">
          -106 callsubr
          -134 968 -50 callsubr
          endchar
        </CharString>
        <CharString name="ehookabove">
          -106 callsubr
          -501 1200 -90 callgsubr
          endchar
        </CharString>
        <CharString name="eight">
          816 870 rmoveto
          -116 -79 72 104 104 79 72 116 116 79 -72 -104 -104 -79 -72 -116 hvcurveto
          -114 -641 rmoveto
          -138 -93 79 117 117 93 79 138 138 93 -79 -117 -117 -93 -79 -138 hvcurveto
          665 850 rmoveto
          230 -229 163 -323 -326 -225 -165 -238 -131 86 -107 151 -58 vhcurveto
          -4 -19 rlineto
          -237 -16 -167 -151 -197 vvcurveto
          -252 243 -167 366 369 240 169 260 169 -99 127 -176 58 vhcurveto
          4 19 rlineto
          186 9 141 132 165 vvcurveto
          endchar
        </CharString>
        <CharString name="einvertedbreve">
          -106 callsubr
          -313 1301 -54 callgsubr
        </CharString>
        <CharString name="elcyrillic">
          710 851 rmoveto
          228 hlineto
          -150 -851 rlineto
          350 25 callsubr
          -882 hlineto
          -41 callsubr
          endchar
        </CharString>
        <CharString name="ellipsis">
          229 -42 rmoveto
          31 callsubr
          417 hmoveto
          31 callsubr
          417 hmoveto
          31 callsubr
          endchar
        </CharString>
        <CharString name="emacron">
          -106 callsubr
          53 1018 -97 callsubr
          endchar
        </CharString>
        <CharString name="emacronacute">
          1267 1336 9 callsubr
          97 -1335 -71 callgsubr
        </CharString>
        <CharString name="emacrongrave">
          -106 callsubr
          -125 1341 7 callgsubr
        </CharString>
        <CharString name="emcyrillic">
          459 737 rmoveto
          65 callgsubr
          267 25 callsubr
          54 callsubr
          endchar
        </CharString>
        <CharString name="emdash">
          34 callgsubr
        </CharString>
        <CharString name="encyrillic">
          22 callgsubr
        </CharString>
        <CharString name="endash">
          34 callgsubr
        </CharString>
        <CharString name="eogonek">
          587 681 rmoveto
          4 20 4 18 6 17 rrcurveto
          101 33 66 53 95 hhcurveto
          94 60 -54 -84 -23 -3 -31 -4 -17 hvcurveto
          57 -948 rmoveto
          -3 -7 -47 -5 -29 hhcurveto
          -84 -53 36 59 77 55 49 141 86 hvcurveto
          128 78 87 95 24 123 rrcurveto
          -349 hlineto
          -71 -29 -51 -32 -84 hhcurveto
          -99 -63 64 101 18 5 37 8 33 hvcurveto
          692 hlineto
          22 124 rlineto
          8 39 4 49 54 vvcurveto
          228 -201 167 -273 -282 -218 -173 -266 -54 vhcurveto
          -25 -124 rlineto
          -12 -63 -5 -47 -58 vvcurveto
          -266 184 -168 282 10 vhcurveto
          -4 -20 rlineto
          -114 -62 -51 -68 -89 vvcurveto
          -126 124 -88 178 66 56 8 15 38 vhcurveto
          endchar
        </CharString>
        <CharString name="epsilongreek">
          -23 callsubr
          endchar
        </CharString>
        <CharString name="epsilontonosgreek">
          -23 callsubr
          58 1294 -45 callsubr
          endchar
        </CharString>
        <CharString name="equal">
          1198 201 93 callsubr
          1156 543 93 callsubr
          endchar
        </CharString>
        <CharString name="ercyrillic">
          -75 callsubr
          endchar
        </CharString>
        <CharString name="ereversedcyrillic">
          1265 542 -89 callsubr
          endchar
        </CharString>
        <CharString name="escyrillic">
          1291 701 -87 callsubr
          endchar
        </CharString>
        <CharString name="etagreek">
          538 hmoveto
          -20 callgsubr
        </CharString>
        <CharString name="etatonosgreek">
          660 77 callgsubr
          -261 -1662 rmoveto
          -20 callgsubr
        </CharString>
        <CharString name="eth">
          883 470 rmoveto
          -134 -17 -76 -89 -92 hhcurveto
          -94 -61 66 102 37 2 43 4 29 hvcurveto
          9 68 rlineto
          133 18 73 83 95 hhcurveto
          90 63 -69 -97 -51 -1 -18 -4 -34 hvcurveto
          483 1056 rmoveto
          -376 -130 -30 34 -31 30 -32 24 rlinecurve
          -440 hlineto
          74 -45 75 -70 67 -82 -200 -69 rcurveline
          -34 -194 337 116 54 -92 41 -95 16 -86 rlinecurve
          -20 hlineto
          78 -62 -78 34 -116 hhcurveto
          -205 -177 -161 -216 -32 hvcurveto
          -17 -114 rlineto
          -6 -40 -3 -41 -45 vvcurveto
          -275 198 -177 306 309 198 164 302 53 vhcurveto
          15 84 6 75 112 vvcurveto
          205 -64 223 -100 174 vhcurveto
          240 83 rlineto
          endchar
        </CharString>
        <CharString name="etilde">
          -106 callsubr
          -453 1078 -103 callgsubr
          endchar
        </CharString>
        <CharString name="etildebelow">
          -106 callsubr
          -779 -655 -103 callgsubr
          endchar
        </CharString>
        <CharString name="exclam">
          684 26 callgsubr
          -144 -994 rlineto
          342 hlineto
          209 994 rlineto
          -431 -1481 rmoveto
          47 callgsubr
          47 callsubr
          hvcurveto
          endchar
        </CharString>
        <CharString name="exclamdown">
          851 -350 rmoveto
          144 994 rlineto
          -342 hlineto
          -209 -994 rlineto
          431 1481 rmoveto
          47 callsubr
          47 callgsubr
          hvcurveto
          endchar
        </CharString>
        <CharString name="f">
          4 callgsubr
          endchar
        </CharString>
        <CharString name="fdotaccent">
          4 callgsubr
          -181 437 -104 callgsubr
          endchar
        </CharString>
        <CharString name="fi">
          629 hmoveto
          147 835 rlineto
          204 hlineto
          -147 -835 100 callsubr
          194 1098 rlineto
          -577 hlineto
          16 91 rlineto
          67 11 39 28 58 hhcurveto
          39 hlineto
          42 238 rlineto
          -38 hlineto
          -353 -128 -89 -278 -49 hvcurveto
          -10 -57 rlineto
          -224 hlineto
          -47 -263 rlineto
          224 hlineto
          -147 -835 rlineto
          1026 1200 49 callsubr
        </CharString>
        <CharString name="figuredash">
          34 callgsubr
        </CharString>
        <CharString name="five">
          670 -29 rmoveto
          339 272 255 316 238 -181 182 -236 -125 -110 -52 -87 -60 hvcurveto
          -20 hlineto
          101 334 rlineto
          655 hlineto
          50 286 rlineto
          -947 hlineto
          -228 -845 rlineto
          358 hlineto
          73 44 74 41 84 hhcurveto
          108 82 -85 -110 -151 -95 -100 -143 -99 -87 72 87 -5 hvcurveto
          -356 hlineto
          -2 -13 -1 -17 -21 vvcurveto
          -225 234 -178 294 vhcurveto
          endchar
        </CharString>
        <CharString name="fl">
          701 835 rmoveto
          207 62 callgsubr
          -216 hlineto
          15 87 rlineto
          65 11 39 34 65 hhcurveto
          210 hlineto
          -226 -1284 rlineto
          353 hlineto
          268 1522 rlineto
          -575 hlineto
          -322 -124 -91 -273 -48 hvcurveto
          -10 -60 rlineto
          -201 hlineto
          -47 -263 rlineto
          201 hlineto
          -147 -835 rlineto
          353 hlineto
          endchar
        </CharString>
        <CharString name="florin">
          1479 1442 rmoveto
          8 -48 -68 4 -69 hhcurveto
          -327 -205 -138 -285 -97 hvcurveto
          -54 -161 rlineto
          -334 hlineto
          -49 -268 rlineto
          292 hlineto
          -53 -157 rlineto
          -105 -36 -83 -61 -104 hhcurveto
          -47 -52 7 13 -51 hvcurveto
          -54 -303 rlineto
          -12 47 82 -8 75 hhcurveto
          318 194 143 309 104 hvcurveto
          59 174 rlineto
          368 hlineto
          49 268 rlineto
          -327 hlineto
          38 111 rlineto
          115 39 73 53 123 hhcurveto
          46 69 -7 -7 28 hvcurveto
          endchar
        </CharString>
        <CharString name="four">
          705 hmoveto
          346 hlineto
          45 254 rlineto
          170 98 callgsubr
          -178 hlineto
          60 344 rlineto
          -324 hlineto
          -59 -336 rlineto
          -260 hlineto
          4 22 536 887 58 callgsubr
          -560 -911 -49 -278 rlineto
          635 hlineto
          endchar
        </CharString>
        <CharString name="fraction">
          1520 1443 1 callsubr
        </CharString>
        <CharString name="franc">
          1346 1148 rmoveto
          52 295 rlineto
          -958 hlineto
          -189 -1073 rlineto
          -149 hlineto
          -37 -213 rlineto
          149 hlineto
          -28 -157 rlineto
          367 hlineto
          101 callgsubr
          331 hlineto
          28 callgsubr
          -331 hlineto
          30 168 rlineto
          534 hlineto
          49 281 rlineto
          -534 hlineto
          58 329 rlineto
          endchar
        </CharString>
        <CharString name="g">
          1360 1113 -101 callsubr
        </CharString>
        <CharString name="gacute">
          882 486 rmoveto
          -114 -20 -75 -72 -99 hhcurveto
          -92 -69 64 86 21 1 18 5 37 hvcurveto
          25 144 rlineto
          115 20 74 38 callsubr
          -21 -1 -18 -5 -37 hvcurveto
          453 483 rmoveto
          -350 69 callsubr
          -24 hlineto
          140 -52 -114 78 -154 hhcurveto
          -232 -165 -176 -297 -45 hvcurveto
          -25 -163 rlineto
          -7 -49 -3 -36 -46 vvcurveto
          -212 137 -140 207 150 139 92 129 45 vhcurveto
          22 hlineto
          -41 -234 rlineto
          -115 -20 -78 -65 -120 hhcurveto
          -101 -71 37 57 -11 hvcurveto
          -344 hlineto
          -1 -4 0 0 -24 vvcurveto
          -181 203 -124 296 330 221 155 266 47 vhcurveto
          -194 1294 14 callgsubr
        </CharString>
        <CharString name="gammagreek">
          696 -368 rmoveto
          56 326 rlineto
          401 435 162 317 336 vvcurveto
          28 -1 22 -2 17 vhcurveto
          -344 hlineto
          2 -14 1 -29 -26 vvcurveto
          -194 -87 -273 -198 -256 105 callgsubr
          168 -1191 -51 -290 rlineto
          endchar
        </CharString>
        <CharString name="gbreve">
          1064 1587 -23 callgsubr
          51 -474 -101 callsubr
        </CharString>
        <CharString name="gcaron">
          1018 43 callgsubr
          696 -183 -101 callsubr
        </CharString>
        <CharString name="gcircumflex">
          724 1632 rmoveto
          -102 callsubr
          282 -519 -101 callsubr
        </CharString>
        <CharString name="gcommaaccent">
          983 1292 -54 callsubr
          683 -179 -101 callsubr
        </CharString>
        <CharString name="gdotaccent">
          870 31 callgsubr
          490 -159 -101 callsubr
        </CharString>
        <CharString name="gecyrillic">
          1350 1113 rmoveto
          -1072 -31 callgsubr
          endchar
        </CharString>
        <CharString name="germandbls">
          417 hmoveto
          175 995 rlineto
          109 20 63 58 99 hhcurveto
          97 60 -49 -79 -95 -72 -66 -103 hvcurveto
          -25 hlineto
          -53 -301 rlineto
          58 hlineto
          119 72 -51 -86 -91 -63 -53 -109 -49 -61 13 17 -35 hvcurveto
          -54 -304 rlineto
          -21 74 106 -14 81 hhcurveto
          315 185 164 279 165 -98 112 -174 32 hvcurveto
          4 19 rlineto
          159 38 104 139 176 vvcurveto
          234 -190 132 -335 -317 -198 -146 -269 -48 vhcurveto
          -186 -1057 rlineto
          endchar
        </CharString>
        <CharString name="geupturncyrillic">
          1400 1398 rmoveto
          -290 hlineto
          -50 -285 rlineto
          -782 -31 callgsubr
          107 callsubr
          endchar
        </CharString>
        <CharString name="gjecyrillic">
          1356 15 callsubr
          349 -183 rmoveto
          -1072 -31 callgsubr
          endchar
        </CharString>
        <CharString name="glyph1">
          endchar
        </CharString>
        <CharString name="gmacron">
          1232 16 callgsubr
          892 -233 -101 callsubr
        </CharString>
        <CharString name="grave">
          1065 71 callsubr
          endchar
        </CharString>
        <CharString name="gravecmb">
          1065 71 callsubr
          endchar
        </CharString>
        <CharString name="gravecmb.short">
          873 -33 callsubr
          endchar
        </CharString>
        <CharString name="greater">
          213 409 rmoveto
          -71 -403 1073 488 53 299 -901 488 -64 -363 556 -244 -3 -21 rlineto
          endchar
        </CharString>
        <CharString name="greaterequal">
          1155 -15 rmoveto
          53 300 rlineto
          -1045 hlineto
          -53 -300 rlineto
          115 659 rmoveto
          -54 -306 1099 299 50 279 -995 299 -57 -327 545 -112 -4 -20 rlineto
          endchar
        </CharString>
        <CharString name="greekquestionmark">
          807 724 -18 callsubr
          -209 -1046 rmoveto
          330 764 rlineto
          -389 hlineto
          -269 -764 rlineto
          endchar
        </CharString>
        <CharString name="guarani">
          529 464 rmoveto
          28 4 40 8 47 vhcurveto
          57 323 26 144 66 96 95 31 rlinecurve
          -156 -896 rlineto
          -64 34 -36 68 85 vvcurveto
          770 6 rmoveto
          56 317 rlineto
          -476 hlineto
          65 372 rlineto
          57 -32 33 -59 -69 vvcurveto
          -15 -1 -24 -1 -8 vhcurveto
          348 hlineto
          1 8 1 17 13 vvcurveto
          236 -149 180 -236 52 vhcurveto
          22 126 rlineto
          -161 hlineto
          -20 -112 -326 -7 -213 -191 -59 -340 rlinecurve
          -53 -310 rlineto
          -9 -52 -4 -51 -43 vvcurveto
          -254 154 -188 248 -51 vhcurveto
          -23 -132 rlineto
          161 hlineto
          21 118 313 7 194 171 57 321 rlinecurve
          -321 65 rmoveto
          -5 -29 -23 -132 -67 -88 -97 -25 rlinecurve
          48 274 rlineto
          endchar
        </CharString>
        <CharString name="guillemotleft">
          480 644 12 callgsubr
          526 9 12 callgsubr
          endchar
        </CharString>
        <CharString name="guillemotright">
          1011 635 12 callsubr
          -526 -9 12 callsubr
          endchar
        </CharString>
        <CharString name="guilsingleright">
          749 635 12 callsubr
          endchar
        </CharString>
        <CharString name="guilsinglleft">
          742 644 12 callgsubr
          endchar
        </CharString>
        <CharString name="h">
          99 hmoveto
          -95 callgsubr
          -19 hlineto
          108 598 58 callsubr
          endchar
        </CharString>
        <CharString name="hacyrillic">
          698 341 rmoveto
          119 -341 rlineto
          383 hlineto
          -239 562 -52 callsubr
          endchar
        </CharString>
        <CharString name="hardsigncyrillic">
          651 262 rmoveto
          51 286 rlineto
          114 hlineto
          79 44 -54 -68 -96 -70 -68 -111 hvcurveto
          -11 544 rmoveto
          54 307 rlineto
          -605 hlineto
          -46 -262 rlineto
          260 hlineto
          -150 -851 rlineto
          514 hlineto
          304 210 199 251 200 -134 156 -248 hvcurveto
          endchar
        </CharString>
        <CharString name="hbar">
          607 932 rmoveto
          57 314 rlineto
          264 87 callsubr
          -264 hlineto
          22 120 rlineto
          -346 88 callgsubr
          -99 82 callgsubr
          99 hlineto
          -220 -1246 rlineto
          -95 callgsubr
          endchar
        </CharString>
        <CharString name="hbrevebelow">
          99 hmoveto
          -95 callgsubr
          -19 hlineto
          108 598 58 callsubr
          214 -1995 -93 callgsubr
          endchar
        </CharString>
        <CharString name="hcaron">
          99 hmoveto
          -95 callgsubr
          -19 hlineto
          108 598 58 callsubr
          30 142 -84 callsubr
          endchar
        </CharString>
        <CharString name="hcedilla">
          258 86 callgsubr
          -37 -35 -17 -78 -44 -46 6 8 -17 hvcurveto
          -27 -152 rlineto
          -11 46 53 -7 42 hhcurveto
          198 117 88 147 77 -61 62 -93 18 hvcurveto
          65 102 115 652 rlineto
          123 21 76 71 108 hhcurveto
          90 71 -66 -82 -20 -2 -18 -5 -31 hvcurveto
          -111 -629 rlineto
          353 hlineto
          120 682 rlineto
          7 44 4 39 35 vvcurveto
          203 -134 131 -209 -137 -125 -77 -125 -68 vhcurveto
          -19 hlineto
          108 598 58 callsubr
          -270 -1530 rlineto
          endchar
        </CharString>
        <CharString name="hcircumflex">
          99 hmoveto
          -95 callgsubr
          -19 hlineto
          108 598 58 callsubr
          448 502 -75 callgsubr
          endchar
        </CharString>
        <CharString name="hdieresis">
          99 hmoveto
          -95 callgsubr
          -19 hlineto
          108 598 58 callsubr
          -28 157 rmoveto
          -105 callgsubr
          506 hmoveto
          -105 callgsubr
          endchar
        </CharString>
        <CharString name="hdotaccent">
          99 hmoveto
          -95 callgsubr
          -19 hlineto
          108 598 58 callsubr
          716 -258 -104 callgsubr
          endchar
        </CharString>
        <CharString name="hdotbelow">
          99 hmoveto
          -95 callgsubr
          -19 hlineto
          108 598 58 callsubr
          211 -2021 -104 callgsubr
          endchar
        </CharString>
        <CharString name="hlinebelow">
          99 hmoveto
          -95 callgsubr
          -19 hlineto
          108 598 58 callsubr
          571 -1958 -97 callsubr
          endchar
        </CharString>
        <CharString name="hookabovecmb">
          698 1528 -90 callgsubr
          endchar
        </CharString>
        <CharString name="hookabovecmb.short">
          21 callsubr
          endchar
        </CharString>
        <CharString name="horncmb">
          636 886 rmoveto
          -12 22 56 -9 52 hhcurveto
          157 118 112 178 31 hvcurveto
          38 219 rlineto
          -269 hlineto
          -28 -158 rlineto
          -73 -13 -28 -32 -50 hhcurveto
          -16 -17 4 6 -11 hvcurveto
          endchar
        </CharString>
        <CharString name="hryvnia">
          880 388 rmoveto
          -91 -24 -76 -51 -110 hhcurveto
          -99 -63 45 72 85 70 63 105 10 hvcurveto
          660 hlineto
          27 154 rlineto
          -1226 hlineto
          -25 -144 rlineto
          115 hlineto
          -4 -19 rlineto
          -60 -57 -31 -73 -83 vvcurveto
          -203 198 -125 321 330 186 136 281 55 vhcurveto
          160 396 rmoveto
          26 145 rlineto
          -164 hlineto
          3 19 rlineto
          46 47 31 77 66 vvcurveto
          199 -196 135 -290 -305 -194 -145 -266 -51 vhcurveto
          337 hlineto
          85 19 71 51 100 hhcurveto
          88 51 -39 -67 -82 -55 -56 -96 -14 hvcurveto
          -619 hlineto
          -28 -155 rlineto
          endchar
        </CharString>
        <CharString name="hungarumlaut">
          962 1296 -26 callsubr
        </CharString>
        <CharString name="hungarumlautcmb">
          853 1296 -26 callsubr
        </CharString>
        <CharString name="hungarumlautcmb.short">
          991 1596 11 callsubr
        </CharString>
        <CharString name="hyphen">
          1250 492 rmoveto
          53 302 rlineto
          -1060 63 callsubr
        </CharString>
        <CharString name="i">
          906 1314 rmoveto
          -66 callgsubr
          224 -1314 33 callsubr
        </CharString>
        <CharString name="iacute">
          1009 1296 -78 callsubr
          449 30 callsubr
        </CharString>
        <CharString name="iacyrillic">
          929 852 -64 callgsubr
        </CharString>
        <CharString name="ibreve">
          1130 hmoveto
          -92 callsubr
          761 1218 -93 callgsubr
          endchar
        </CharString>
        <CharString name="icaron">
          1130 hmoveto
          -92 callsubr
          921 43 callgsubr
          endchar
        </CharString>
        <CharString name="icircumflex">
          1130 hmoveto
          -92 callsubr
          627 1632 rmoveto
          -9 callgsubr
        </CharString>
        <CharString name="icyrillic">
          906 1314 rmoveto
          -66 callgsubr
          224 -1314 33 callsubr
        </CharString>
        <CharString name="idblgrave">
          1088 -50 callgsubr
          384 30 callsubr
        </CharString>
        <CharString name="idieresis">
          1130 hmoveto
          -92 callsubr
          519 1279 rmoveto
          -105 callgsubr
          506 hmoveto
          -105 callgsubr
          endchar
        </CharString>
        <CharString name="idieresisacute">
          1130 hmoveto
          -92 callsubr
          628 1641 rmoveto
          277 hlineto
          333 351 rlineto
          -324 hlineto
          -402 -745 rmoveto
          -105 callgsubr
          506 hmoveto
          -105 callgsubr
          endchar
        </CharString>
        <CharString name="idotaccent">
          1130 hmoveto
          -92 callsubr
          773 31 callgsubr
          endchar
        </CharString>
        <CharString name="idotbelow">
          906 1314 rmoveto
          -66 callgsubr
          224 -1314 rmoveto
          -92 callsubr
          443 -5 callsubr
          endchar
        </CharString>
        <CharString name="iecyrillic">
          -106 callsubr
          endchar
        </CharString>
        <CharString name="igrave">
          1130 hmoveto
          -92 callsubr
          948 71 callsubr
          endchar
        </CharString>
        <CharString name="ihookabove">
          1130 hmoveto
          -92 callsubr
          581 1528 -90 callgsubr
          endchar
        </CharString>
        <CharString name="iicyrillic">
          944 671 -56 callgsubr
        </CharString>
        <CharString name="iinvertedbreve">
          1130 hmoveto
          -92 callsubr
          769 1629 -54 callgsubr
        </CharString>
        <CharString name="iishortcyrillic">
          1061 1637 rmoveto
          -98 callgsubr
          -63 callsubr
          -368 -966 -56 callgsubr
        </CharString>
        <CharString name="ij">
          510 hmoveto
          6 callgsubr
          -327 -49 callgsubr
          1132 1113 -2 callsubr
          83 1247 rmoveto
          -66 callgsubr
          -605 hmoveto
          -66 callgsubr
          endchar
        </CharString>
        <CharString name="ijacute">
          1361 1296 -78 callsubr
          -289 hmoveto
          355 362 rlineto
          -376 hlineto
          -307 -362 rlineto
          899 -183 -2 callsubr
          -621 -67 41 callgsubr
          -327 35 callgsubr
        </CharString>
        <CharString name="imacron">
          1130 hmoveto
          -92 callsubr
          1135 16 callgsubr
          endchar
        </CharString>
        <CharString name="infinity">
          779 834 rmoveto
          109 -49 -74 53 -103 hhcurveto
          -206 -176 -220 -258 -177 101 -125 143 93 96 56 109 95 hvcurveto
          -109 57 76 -56 93 hhcurveto
          207 175 219 259 177 -101 125 -143 -103 -95 -54 -108 -86 hvcurveto
          -245 -95 rmoveto
          45 29 -44 -97 19 hvcurveto
          -85 -49 -42 -40 -42 hhcurveto
          -41 -29 47 65 73 58 81 52 hvcurveto
          409 -266 rmoveto
          -46 -28 43 98 -19 hvcurveto
          85 49 42 40 42 hhcurveto
          41 30 -46 -62 -74 -59 -84 -52 hvcurveto
          endchar
        </CharString>
        <CharString name="integral">
          260 -301 rmoveto
          233 163 118 224 76 hvcurveto
          359 1063 rlineto
          94 31 51 41 83 hhcurveto
          33 29 -6 -13 25 hvcurveto
          101 278 rlineto
          26 -56 -79 15 -82 hhcurveto
          -233 -163 -118 -225 -76 hvcurveto
          -360 -1058 rlineto
          -101 -34 -43 -38 -81 hhcurveto
          -29 -44 9 10 -21 hvcurveto
          -100 -278 rlineto
          -27 57 77 -14 83 hhcurveto
          endchar
        </CharString>
        <CharString name="invertedbrevecmb">
          886 1629 -54 callgsubr
        </CharString>
        <CharString name="invertedbrevecmb.short">
          984 1932 -47 callsubr
        </CharString>
        <CharString name="iocyrillic">
          -106 callsubr
          -563 951 rmoveto
          -105 callgsubr
          506 hmoveto
          -105 callgsubr
          endchar
        </CharString>
        <CharString name="iogonek">
          906 1314 rmoveto
          -66 callgsubr
          -73 -1316 rmoveto
          -148 -69 -74 -87 -107 vvcurveto
          -127 115 -87 167 63 47 7 16 39 vhcurveto
          33 179 rlineto
          -4 -15 -39 -4 -29 hhcurveto
          -65 -42 35 54 89 73 65 135 33 hvcurveto
          37 9 -92 callsubr
          697 hlineto
          endchar
        </CharString>
        <CharString name="iotadieresisgreek">
          -52 callgsubr
          -291 1279 rmoveto
          -105 callgsubr
          506 hmoveto
          -105 callgsubr
          endchar
        </CharString>
        <CharString name="iotadieresistonosgreek">
          -52 callgsubr
          -413 1267 -48 callsubr
        </CharString>
        <CharString name="iotagreek">
          -52 callgsubr
          endchar
        </CharString>
        <CharString name="iotatonosgreek">
          -52 callgsubr
          -163 77 callgsubr
          endchar
        </CharString>
        <CharString name="isuperior">
          1122 497 rmoveto
          41 235 rlineto
          -249 hlineto
          125 711 rlineto
          -548 hlineto
          -41 -235 rlineto
          247 hlineto
          -84 -476 rlineto
          -271 hlineto
          -41 -235 rlineto
          635 1065 rmoveto
          135 74 56 101 101 -74 56 -135 -135 -74 -56 -101 -101 74 -56 135 hvcurveto
          endchar
        </CharString>
        <CharString name="itilde">
          1130 hmoveto
          -92 callsubr
          629 1406 -103 callgsubr
          endchar
        </CharString>
        <CharString name="itildebelow">
          906 1314 rmoveto
          -66 callgsubr
          224 -1314 rmoveto
          -92 callsubr
          304 -327 -103 callgsubr
          endchar
        </CharString>
        <CharString name="iucyrillic">
          1042 536 -86 callgsubr
        </CharString>
        <CharString name="j">
          1007 1314 rmoveto
          -66 callgsubr
          118 -201 -30 callgsubr
          endchar
        </CharString>
        <CharString name="jcircumflex">
          1125 1113 -30 callgsubr
          -70 1565 rmoveto
          -9 callgsubr
        </CharString>
        <CharString name="jecyrillic">
          1007 1314 rmoveto
          -66 callgsubr
          118 -201 -30 callgsubr
          endchar
        </CharString>
</ttFont>
